# Blender 4.2.3 LTS
# www.blender.org
mtllib Table Kobe Parket Teak.mtl
o Table_Kobe_Parket_Teak
v -0.298654 0.763972 -0.141173
v -0.300838 0.764163 -0.139426
v -0.297916 0.765938 -0.139173
v -0.300092 0.764312 -0.140741
v -0.299440 0.765198 -0.140398
v -0.299601 0.765418 -0.139299
v -0.298288 0.765361 -0.140587
v -0.300838 0.764163 0.139425
v -0.298654 0.763972 0.141172
v -0.297916 0.765938 0.139172
v -0.300092 0.764312 0.140741
v -0.299440 0.765198 0.140397
v -0.298288 0.765361 0.140586
v -0.299601 0.765418 0.139298
v -0.000000 0.765938 -0.139173
v -0.000000 0.763970 -0.141173
v -0.000000 0.765361 -0.140587
v -0.000000 0.763970 0.141172
v -0.000000 0.765938 0.139172
v -0.000000 0.765361 0.140586
v -0.698226 0.003919 -0.257087
v -0.699079 0.006616 -0.256797
v -0.697285 0.005663 -0.258818
v -0.699215 0.005097 -0.256998
v -0.698857 0.005195 -0.258123
v -0.698549 0.006330 -0.258221
v -0.697946 0.004423 -0.258427
v -0.698226 0.003919 0.257086
v -0.697285 0.005663 0.258817
v -0.699079 0.006616 0.256796
v -0.697945 0.004427 0.258422
v -0.698852 0.005205 0.258110
v -0.698529 0.006384 0.258216
v -0.699211 0.005091 0.256941
v -0.284624 0.745236 -0.139173
v -0.287547 0.743464 -0.139429
v -0.287887 0.747204 -0.141173
v -0.286309 0.744718 -0.139301
v -0.286639 0.745246 -0.140385
v -0.287325 0.745178 -0.140680
v -0.286268 0.745814 -0.140587
v -0.287547 0.743464 0.139429
v -0.284624 0.745236 0.139172
v -0.287887 0.747204 0.141172
v -0.286309 0.744718 0.139300
v -0.286639 0.745246 0.140385
v -0.286268 0.745814 0.140586
v -0.287325 0.745178 0.140679
v -0.000000 0.746904 -0.141173
v -0.000000 0.744938 -0.139173
v -0.000000 0.745514 -0.140587
v -0.000000 0.744938 0.139172
v -0.000000 0.746904 0.141172
v -0.000000 0.745514 0.140586
v -0.683141 -0.003919 -0.257087
v -0.682256 -0.002146 -0.258814
v -0.680443 -0.003067 -0.256792
v -0.682888 -0.003397 -0.258421
v -0.681729 -0.003691 -0.258108
v -0.680949 -0.002750 -0.258213
v -0.681616 -0.004051 -0.256940
v -0.683141 -0.003919 0.257086
v -0.680443 -0.003067 0.256792
v -0.682256 -0.002146 0.258813
v -0.681608 -0.004051 0.256996
v -0.681734 -0.003702 0.258121
v -0.680982 -0.002798 0.258217
v -0.682889 -0.003400 0.258425
v 0.297916 0.765938 -0.139172
v 0.300838 0.764163 -0.139426
v 0.298654 0.763972 -0.141172
v 0.299601 0.765418 -0.139299
v 0.299440 0.765198 -0.140398
v 0.300092 0.764312 -0.140741
v 0.298288 0.765361 -0.140587
v 0.300838 0.764163 0.139425
v 0.297916 0.765938 0.139172
v 0.298654 0.763972 0.141172
v 0.299601 0.765418 0.139298
v 0.299440 0.765198 0.140397
v 0.298288 0.765361 0.140586
v 0.300092 0.764312 0.140741
v 0.698226 0.003919 -0.257087
v 0.697285 0.005663 -0.258817
v 0.699079 0.006616 -0.256797
v 0.697945 0.004427 -0.258422
v 0.698852 0.005205 -0.258110
v 0.698529 0.006384 -0.258217
v 0.699211 0.005091 -0.256942
v 0.698226 0.003919 0.257086
v 0.699079 0.006616 0.256796
v 0.697285 0.005663 0.258817
v 0.699215 0.005097 0.256997
v 0.698857 0.005195 0.258123
v 0.698549 0.006330 0.258221
v 0.697946 0.004423 0.258426
v 0.287887 0.747204 -0.141172
v 0.287547 0.743464 -0.139429
v 0.284624 0.745236 -0.139172
v 0.287325 0.745178 -0.140680
v 0.286639 0.745246 -0.140385
v 0.286309 0.744718 -0.139301
v 0.286268 0.745814 -0.140587
v 0.287547 0.743464 0.139429
v 0.287887 0.747204 0.141172
v 0.284624 0.745236 0.139172
v 0.287325 0.745178 0.140679
v 0.286639 0.745246 0.140385
v 0.286268 0.745814 0.140586
v 0.286309 0.744718 0.139300
v 0.683141 -0.003919 -0.257087
v 0.680443 -0.003067 -0.256792
v 0.682256 -0.002146 -0.258814
v 0.681608 -0.004051 -0.256996
v 0.681734 -0.003702 -0.258122
v 0.680982 -0.002798 -0.258217
v 0.682889 -0.003400 -0.258425
v 0.683141 -0.003919 0.257086
v 0.682256 -0.002146 0.258813
v 0.680443 -0.003067 0.256792
v 0.682887 -0.003397 0.258421
v 0.681729 -0.003691 0.258108
v 0.680949 -0.002750 0.258212
v 0.681616 -0.004051 0.256939
v -0.997100 0.843938 -0.505429
v -0.999100 0.843938 -0.503429
v -0.997100 0.845938 -0.503429
v -0.998514 0.843938 -0.504843
v -0.998255 0.845092 -0.504583
v -0.998514 0.845352 -0.503429
v -0.997100 0.845352 -0.504843
v -0.999100 0.843938 0.491614
v -0.997100 0.843938 0.493614
v -0.997100 0.845938 0.491614
v -0.998514 0.843938 0.493028
v -0.998255 0.845092 0.492768
v -0.997100 0.845352 0.493028
v -0.998514 0.845352 0.491614
v 0.997100 0.843938 -0.505428
v 0.997100 0.845938 -0.503428
v 0.999099 0.843938 -0.503428
v 0.997100 0.845352 -0.504843
v 0.998254 0.845092 -0.504583
v 0.998514 0.845352 -0.503429
v 0.998514 0.843938 -0.504843
v 0.997100 0.843938 0.493614
v 0.999099 0.843938 0.491614
v 0.997100 0.845938 0.491614
v 0.998514 0.843938 0.493028
v 0.998254 0.845092 0.492769
v 0.998514 0.845352 0.491614
v 0.997100 0.845352 0.493028
v -0.956795 0.804397 -0.465124
v -0.958795 0.804397 -0.463124
v -0.960795 0.806397 -0.464296
v -0.957967 0.806397 -0.467124
v -0.958210 0.804397 -0.464538
v -0.958727 0.805815 -0.465055
v -0.959381 0.805811 -0.463710
v -0.959967 0.806397 -0.466296
v -0.957381 0.805811 -0.465710
v -0.958795 0.804397 0.451309
v -0.956795 0.804397 0.453309
v -0.957967 0.806397 0.455309
v -0.960795 0.806397 0.452481
v -0.958210 0.804397 0.452724
v -0.958727 0.805815 0.453241
v -0.957381 0.805811 0.453895
v -0.959967 0.806397 0.454481
v -0.959381 0.805811 0.451895
v 0.956795 0.804397 -0.465124
v 0.957967 0.806397 -0.467124
v 0.960795 0.806397 -0.464296
v 0.958795 0.804397 -0.463124
v 0.957381 0.805811 -0.465710
v 0.958726 0.805815 -0.465055
v 0.959967 0.806397 -0.466296
v 0.959381 0.805811 -0.463710
v 0.958209 0.804397 -0.464538
v 0.956795 0.804397 0.453309
v 0.958795 0.804397 0.451309
v 0.960795 0.806397 0.452481
v 0.957967 0.806397 0.455309
v 0.958209 0.804397 0.452724
v 0.958726 0.805815 0.453241
v 0.959381 0.805811 0.451895
v 0.959967 0.806397 0.454481
v 0.957381 0.805811 0.453895
v 0.994271 0.806397 -0.503428
v 0.997100 0.808397 -0.505428
v 0.999099 0.808397 -0.503428
v 0.997100 0.806397 -0.500600
v 0.995685 0.806983 -0.504843
v 0.997763 0.806979 -0.504092
v 0.998514 0.808397 -0.504843
v 0.998514 0.806983 -0.502014
v 0.996271 0.806397 -0.502600
v -0.994271 0.806397 -0.503429
v -0.997100 0.806397 -0.500600
v -0.999100 0.808397 -0.503429
v -0.997100 0.808397 -0.505429
v -0.996271 0.806397 -0.502600
v -0.997763 0.806979 -0.504092
v -0.998514 0.806983 -0.502014
v -0.998514 0.808397 -0.504843
v -0.995686 0.806983 -0.504843
v -0.997100 0.806397 0.488785
v -0.994271 0.806397 0.491614
v -0.997100 0.808397 0.493614
v -0.999100 0.808397 0.491614
v -0.996271 0.806397 0.490785
v -0.997764 0.806979 0.492278
v -0.995686 0.806983 0.493028
v -0.998514 0.808397 0.493028
v -0.998514 0.806983 0.490200
v 0.994271 0.806397 0.491614
v 0.997100 0.806397 0.488785
v 0.999099 0.808397 0.491614
v 0.997100 0.808397 0.493614
v 0.996271 0.806397 0.490785
v 0.997763 0.806979 0.492278
v 0.998514 0.806983 0.490200
v 0.998514 0.808397 0.493028
v 0.995685 0.806983 0.493028
v -0.956795 0.767591 -0.465124
v -0.956795 0.765591 -0.463124
v -0.958795 0.767591 -0.463124
v -0.956795 0.766177 -0.464538
v -0.957950 0.766436 -0.464279
v -0.958210 0.766177 -0.463124
v -0.958210 0.767591 -0.464538
v -0.958795 0.767591 0.451309
v -0.956795 0.765591 0.451309
v -0.956795 0.767591 0.453309
v -0.958210 0.766177 0.451309
v -0.957950 0.766436 0.452464
v -0.956795 0.766177 0.452724
v -0.958210 0.767591 0.452724
v 0.956795 0.767591 -0.465124
v 0.958795 0.767591 -0.463124
v 0.956795 0.765591 -0.463124
v 0.958209 0.767591 -0.464538
v 0.957950 0.766436 -0.464279
v 0.958209 0.766177 -0.463124
v 0.956795 0.766177 -0.464538
v 0.956795 0.767591 0.453309
v 0.956795 0.765591 0.451309
v 0.958795 0.767591 0.451309
v 0.956795 0.766177 0.452724
v 0.957950 0.766436 0.452464
v 0.958209 0.766177 0.451309
v 0.958209 0.767591 0.452724
v -0.438868 0.743996 -0.070574
v -0.440868 0.743996 -0.068574
v -0.438868 0.745996 -0.068574
v -0.440283 0.743996 -0.069988
v -0.440023 0.745150 -0.069728
v -0.440283 0.745410 -0.068574
v -0.438868 0.745410 -0.069988
v -0.440868 0.743996 0.060652
v -0.438868 0.743996 0.062652
v -0.438868 0.745996 0.060652
v -0.440283 0.743996 0.062066
v -0.440023 0.745150 0.061807
v -0.438868 0.745410 0.062066
v -0.440283 0.745410 0.060652
v 0.438865 0.743996 -0.070573
v 0.438865 0.745996 -0.068573
v 0.440865 0.743996 -0.068573
v 0.438865 0.745410 -0.069988
v 0.440020 0.745150 -0.069728
v 0.440279 0.745410 -0.068573
v 0.440279 0.743996 -0.069988
v 0.438865 0.743996 0.062652
v 0.440865 0.743996 0.060652
v 0.438865 0.745996 0.060652
v 0.440279 0.743996 0.062066
v 0.440020 0.745150 0.061807
v 0.440279 0.745410 0.060652
v 0.438865 0.745410 0.062066
v 0.438865 0.688357 -0.070573
v 0.440865 0.688357 -0.068573
v 0.438865 0.686357 -0.068573
v 0.440279 0.688357 -0.069988
v 0.440020 0.687203 -0.069728
v 0.440279 0.686943 -0.068573
v 0.438865 0.686943 -0.069988
v -0.438868 0.688357 -0.070574
v -0.438868 0.686357 -0.068574
v -0.440868 0.688357 -0.068574
v -0.438868 0.686943 -0.069988
v -0.440023 0.687203 -0.069728
v -0.440283 0.686943 -0.068574
v -0.440283 0.688357 -0.069988
v -0.440868 0.688357 0.060652
v -0.438868 0.686357 0.060652
v -0.438868 0.688357 0.062652
v -0.440283 0.686943 0.060652
v -0.440023 0.687203 0.061807
v -0.438868 0.686943 0.062066
v -0.440283 0.688357 0.062066
v 0.438865 0.688357 0.062652
v 0.438865 0.686357 0.060652
v 0.440865 0.688357 0.060652
v 0.438865 0.686943 0.062066
v 0.440020 0.687203 0.061807
v 0.440279 0.686943 0.060652
v 0.440279 0.688357 0.062066
v -0.701853 0.341014 -0.070573
v -0.703853 0.341014 -0.068573
v -0.701853 0.343014 -0.068573
v -0.703267 0.341014 -0.069988
v -0.703007 0.342169 -0.069728
v -0.703267 0.342429 -0.068573
v -0.701853 0.342429 -0.069988
v -0.703853 0.341014 0.060652
v -0.701853 0.341014 0.062652
v -0.701853 0.343014 0.060652
v -0.703267 0.341014 0.062066
v -0.703007 0.342169 0.061807
v -0.701853 0.342429 0.062066
v -0.703267 0.342429 0.060652
v 0.701850 0.341014 -0.070573
v 0.701850 0.343014 -0.068573
v 0.703849 0.341014 -0.068573
v 0.701849 0.342429 -0.069988
v 0.703004 0.342169 -0.069728
v 0.703264 0.342429 -0.068573
v 0.703264 0.341014 -0.069988
v 0.701850 0.341014 0.062652
v 0.703849 0.341014 0.060652
v 0.701850 0.343014 0.060652
v 0.703264 0.341014 0.062066
v 0.703004 0.342169 0.061807
v 0.703264 0.342429 0.060652
v 0.701849 0.342429 0.062066
v 0.701850 0.285376 -0.070573
v 0.703849 0.285376 -0.068573
v 0.701850 0.283376 -0.068573
v 0.703264 0.285376 -0.069988
v 0.703004 0.284221 -0.069728
v 0.703264 0.283962 -0.068573
v 0.701849 0.283962 -0.069988
v -0.701853 0.285376 -0.070573
v -0.701853 0.283376 -0.068573
v -0.703853 0.285376 -0.068573
v -0.701853 0.283962 -0.069988
v -0.703007 0.284221 -0.069728
v -0.703267 0.283962 -0.068573
v -0.703267 0.285376 -0.069988
v -0.703853 0.285376 0.060652
v -0.701853 0.283376 0.060652
v -0.701853 0.285376 0.062652
v -0.703267 0.283962 0.060652
v -0.703007 0.284221 0.061807
v -0.701853 0.283962 0.062066
v -0.703267 0.285376 0.062066
v 0.701850 0.285376 0.062652
v 0.701850 0.283376 0.060652
v 0.703849 0.285376 0.060652
v 0.701849 0.283962 0.062066
v 0.703004 0.284221 0.061807
v 0.703264 0.283962 0.060652
v 0.703264 0.285376 0.062066
v 0.999099 0.842161 -0.503428
v 0.999099 0.810174 -0.503428
v 0.998514 0.810174 -0.504843
v 0.998514 0.842161 -0.504843
v 0.997100 0.810174 -0.505428
v 0.997100 0.842161 -0.505428
v 0.999099 0.810174 0.491614
v 0.999099 0.842161 0.491614
v 0.998514 0.842161 0.493028
v 0.998514 0.810174 0.493028
v 0.997100 0.842161 0.493614
v 0.997100 0.810174 0.493614
v -0.999100 0.842161 0.491614
v -0.999100 0.810174 0.491614
v -0.998514 0.810174 0.493028
v -0.998514 0.842161 0.493028
v -0.997100 0.810174 0.493614
v -0.997100 0.842161 0.493614
v -0.999100 0.810174 -0.503429
v -0.999100 0.842161 -0.503429
v -0.998514 0.842161 -0.504843
v -0.998514 0.810174 -0.504843
v -0.997100 0.842161 -0.505429
v -0.997100 0.810174 -0.505429
v 0.958795 0.802521 -0.463124
v 0.958795 0.769467 -0.463124
v 0.958209 0.769467 -0.464538
v 0.958209 0.802521 -0.464538
v 0.956795 0.769467 -0.465124
v 0.956795 0.802521 -0.465124
v 0.958795 0.769467 0.451309
v 0.958795 0.802521 0.451309
v 0.958209 0.802521 0.452724
v 0.958209 0.769468 0.452724
v 0.956795 0.802521 0.453309
v 0.956795 0.769468 0.453309
v -0.958795 0.802521 0.451309
v -0.958795 0.769468 0.451309
v -0.958210 0.769468 0.452724
v -0.958210 0.802521 0.452724
v -0.956795 0.769467 0.453309
v -0.956795 0.802521 0.453309
v -0.958795 0.769467 -0.463124
v -0.958795 0.802521 -0.463124
v -0.958210 0.802521 -0.464538
v -0.958210 0.769467 -0.464538
v -0.956795 0.802521 -0.465124
v -0.956795 0.769467 -0.465124
v 0.992127 0.843938 -0.505429
v -0.992128 0.843938 -0.505429
v -0.992128 0.845352 -0.504843
v 0.992128 0.845352 -0.504843
v -0.992128 0.845938 -0.503429
v 0.992127 0.845938 -0.503428
v -0.992128 0.843938 0.493614
v 0.992127 0.843938 0.493614
v 0.992128 0.845352 0.493028
v -0.992128 0.845352 0.493028
v 0.992127 0.845938 0.491614
v -0.992128 0.845938 0.491614
v 0.989313 0.806397 -0.503429
v -0.989313 0.806397 -0.503429
v -0.990720 0.806983 -0.504843
v 0.990720 0.806983 -0.504843
v -0.992128 0.808397 -0.505429
v 0.992127 0.808397 -0.505429
v -0.989313 0.806397 0.491614
v 0.989313 0.806397 0.491614
v 0.990720 0.806983 0.493028
v -0.990721 0.806983 0.493028
v 0.992127 0.808397 0.493614
v -0.992128 0.808397 0.493614
v 0.952024 0.804397 -0.465124
v -0.952024 0.804397 -0.465124
v -0.952607 0.805811 -0.465710
v 0.952607 0.805811 -0.465710
v -0.953190 0.806397 -0.467124
v 0.953190 0.806397 -0.467124
v -0.952024 0.804397 0.453309
v 0.952024 0.804397 0.453309
v 0.952607 0.805811 0.453895
v -0.952607 0.805811 0.453895
v 0.953190 0.806397 0.455309
v -0.953190 0.806397 0.455309
v 0.952024 0.765591 -0.463124
v -0.952024 0.765591 -0.463124
v -0.952024 0.766177 -0.464538
v 0.952024 0.766177 -0.464538
v -0.952024 0.767591 -0.465124
v 0.952024 0.767591 -0.465124
v -0.952024 0.765591 0.451309
v 0.952024 0.765591 0.451309
v 0.952024 0.766177 0.452724
v -0.952024 0.766177 0.452724
v 0.952024 0.767591 0.453309
v -0.952024 0.767591 0.453309
v 0.992127 0.842161 -0.505429
v -0.992128 0.842161 -0.505429
v 0.992127 0.810174 -0.505429
v -0.992128 0.810174 -0.505429
v -0.992128 0.842161 0.493614
v 0.992127 0.842161 0.493614
v -0.992128 0.810174 0.493614
v 0.992127 0.810174 0.493614
v -0.952024 0.802521 0.453309
v 0.952024 0.802521 0.453309
v -0.952024 0.769467 0.453309
v 0.952024 0.769467 0.453309
v 0.952024 0.802521 -0.465124
v -0.952024 0.802521 -0.465124
v 0.952024 0.769467 -0.465124
v -0.952024 0.769467 -0.465124
v -0.999100 0.843938 -0.500315
v -0.999100 0.843938 0.488500
v -0.998514 0.845352 0.488500
v -0.998514 0.845352 -0.500315
v -0.997100 0.845938 0.488500
v -0.997100 0.845938 -0.500315
v 0.999099 0.843938 0.488500
v 0.999099 0.843938 -0.500314
v 0.998514 0.845352 -0.500314
v 0.998514 0.845352 0.488500
v 0.997100 0.845938 -0.500314
v 0.997100 0.845938 0.488500
v -0.997100 0.806397 -0.497504
v -0.997100 0.806397 0.485689
v -0.998514 0.806983 0.487095
v -0.998514 0.806983 -0.498909
v -0.999100 0.808397 0.488500
v -0.999100 0.808397 -0.500315
v 0.997100 0.806397 0.485689
v 0.997100 0.806397 -0.497504
v 0.998514 0.806983 -0.498909
v 0.998514 0.806983 0.487095
v 0.999099 0.808397 -0.500314
v 0.999099 0.808397 0.488500
v -0.958795 0.804397 -0.460263
v -0.958795 0.804397 0.448448
v -0.959381 0.805811 0.449030
v -0.959381 0.805811 -0.460845
v -0.960795 0.806397 0.449612
v -0.960795 0.806397 -0.461427
v 0.958795 0.804397 0.448448
v 0.958795 0.804397 -0.460262
v 0.959381 0.805811 -0.460844
v 0.959381 0.805811 0.449030
v 0.960795 0.806397 -0.461426
v 0.960795 0.806397 0.449612
v -0.956795 0.765591 -0.460263
v -0.956795 0.765591 0.448448
v -0.958210 0.766177 0.448448
v -0.958210 0.766177 -0.460263
v -0.958795 0.767591 0.448448
v -0.958795 0.767591 -0.460263
v 0.956795 0.765591 0.448448
v 0.956795 0.765591 -0.460262
v 0.958209 0.766177 -0.460262
v 0.958209 0.766177 0.448448
v 0.958795 0.767591 -0.460262
v 0.958795 0.767591 0.448448
v 0.999099 0.842161 0.488500
v 0.999099 0.842161 -0.500314
v 0.999099 0.810174 0.488500
v 0.999099 0.810174 -0.500314
v -0.999100 0.842161 -0.500315
v -0.999100 0.842161 0.488500
v -0.999100 0.810174 -0.500315
v -0.999100 0.810174 0.488500
v 0.958795 0.802521 0.448448
v 0.958795 0.802521 -0.460262
v 0.958795 0.769467 0.448448
v 0.958795 0.769467 -0.460262
v -0.958795 0.802521 -0.460263
v -0.958795 0.802521 0.448448
v -0.958795 0.769467 -0.460263
v -0.958795 0.769467 0.448448
v -0.992128 0.845938 0.488500
v -0.992128 0.845938 -0.500315
v 0.992127 0.845938 0.488500
v 0.992127 0.845938 -0.500315
v -0.952024 0.765591 -0.460262
v -0.952024 0.765591 0.448448
v 0.952024 0.765591 -0.460262
v 0.952024 0.765591 0.448448
v -0.000000 0.843938 -0.505429
v -0.000000 0.845352 -0.504843
v -0.000000 0.845938 -0.503428
v -0.000000 0.843938 0.493614
v 0.000000 0.845352 0.493028
v -0.000000 0.845938 0.491614
v 0.000000 0.806397 -0.503429
v 0.000000 0.806983 -0.504843
v -0.000000 0.808397 -0.505429
v -0.000000 0.806397 0.491614
v -0.000000 0.806983 0.493028
v -0.000000 0.808397 0.493614
v -0.000000 0.804397 -0.465124
v -0.000000 0.805811 -0.465710
v -0.000000 0.806397 -0.467124
v 0.000000 0.804397 0.453309
v -0.000000 0.805811 0.453895
v -0.000000 0.806397 0.455309
v -0.000000 0.765591 -0.463124
v 0.000000 0.766177 -0.464538
v 0.000000 0.767591 -0.465124
v 0.000000 0.765591 0.451309
v -0.000000 0.766177 0.452724
v -0.000000 0.767591 0.453309
v -0.000000 0.842161 -0.505429
v -0.000000 0.810174 -0.505429
v -0.000000 0.842161 0.493614
v -0.000000 0.810174 0.493614
v 0.000000 0.802521 0.453309
v 0.000000 0.769467 0.453309
v -0.000000 0.802521 -0.465124
v -0.000000 0.769467 -0.465124
v -0.000000 0.765591 -0.460262
v 0.000000 0.765591 0.448448
v -0.000000 0.845938 -0.500315
v -0.000000 0.845938 0.488500
v -0.999100 0.843938 -0.005907
v -0.998514 0.845352 -0.005908
v -0.997100 0.845938 -0.005907
v 0.999099 0.843938 -0.005907
v 0.998514 0.845352 -0.005907
v 0.997100 0.845938 -0.005907
v -0.997100 0.806397 -0.005908
v -0.998514 0.806983 -0.005907
v -0.999100 0.808397 -0.005907
v 0.997100 0.806397 -0.005907
v 0.998514 0.806983 -0.005907
v 0.999099 0.808397 -0.005907
v -0.958795 0.804397 -0.005907
v -0.959381 0.805811 -0.005908
v -0.960795 0.806397 -0.005907
v 0.958795 0.804397 -0.005907
v 0.959381 0.805811 -0.005907
v 0.960795 0.806397 -0.005907
v -0.956795 0.765591 -0.005907
v -0.958210 0.766177 -0.005907
v -0.958795 0.767591 -0.005907
v 0.956795 0.765591 -0.005907
v 0.958209 0.766177 -0.005907
v 0.958795 0.767591 -0.005907
v 0.999099 0.842161 -0.005907
v 0.999099 0.810174 -0.005907
v -0.999100 0.842161 -0.005907
v -0.999100 0.810174 -0.005907
v 0.958795 0.802521 -0.005907
v 0.958795 0.769467 -0.005907
v -0.958795 0.802521 -0.005907
v -0.958795 0.769467 -0.005907
v -0.992128 0.845938 -0.005907
v 0.992127 0.845938 -0.005907
v -0.952024 0.765591 -0.005907
v 0.952024 0.765591 -0.005907
v -0.000000 0.845938 -0.005907
v -0.000000 0.765591 -0.005907
v -0.689770 0.001758 -0.258816
v -0.690417 0.000513 -0.258424
v -0.690684 -0.000000 -0.257087
v -0.690684 0.000000 0.257086
v -0.690417 0.000513 0.258423
v -0.689770 0.001758 0.258815
v 0.690684 -0.000000 -0.257087
v 0.690417 0.000513 -0.258424
v 0.689770 0.001758 -0.258816
v 0.689770 0.001758 0.258815
v 0.690417 0.000513 0.258423
v 0.690684 0.000000 0.257086
v -0.293270 0.755588 -0.141173
v -0.000000 0.755437 -0.141173
v -0.000000 0.755437 0.141172
v -0.293270 0.755588 0.141172
v 0.293270 0.755588 -0.141172
v 0.293270 0.755588 0.141172
v 0.692672 0.018804 -0.254908
v 0.692119 0.018578 -0.256327
v 0.690871 0.017863 -0.256925
v 0.692672 0.018804 0.254908
v 0.692139 0.018525 0.256331
v 0.690871 0.017863 0.256924
v 0.675911 0.009910 -0.256921
v 0.674649 0.009236 -0.256326
v 0.674122 0.008944 -0.254904
v 0.675911 0.009910 0.256921
v 0.674616 0.009283 0.256321
v 0.674122 0.008944 0.254904
v 0.683391 0.013886 0.256922
v 0.683391 0.013886 -0.256923
v -0.690888 0.017831 -0.256930
v -0.692155 0.018494 -0.256336
v -0.692688 0.018772 -0.254913
v -0.690888 0.017831 0.256929
v -0.692136 0.018546 0.256331
v -0.692688 0.018772 0.254913
v -0.674139 0.008913 -0.254909
v -0.674633 0.009252 -0.256327
v -0.675927 0.009878 -0.256926
v -0.674139 0.008913 0.254908
v -0.674665 0.009205 0.256331
v -0.675927 0.009878 0.256925
v -0.683408 0.013855 0.256927
v -0.683408 0.013855 -0.256928
vn -0.8549 0.4799 0.1971
vn -0.8544 0.4800 -0.1989
vn -0.9319 0.3118 -0.1853
vn -0.9329 0.3088 0.1851
vn 0.0813 0.1118 -0.9904
vn 0.0494 0.0514 -0.9975
vn 0.1099 -0.0446 -0.9929
vn 0.2482 0.0212 -0.9685
vn 0.8800 -0.4322 0.1967
vn 0.7881 -0.5870 0.1853
vn 0.7862 -0.5896 -0.1853
vn 0.8802 -0.4326 -0.1950
vn -0.1262 -0.9655 -0.2277
vn -0.1262 -0.9655 0.2277
vn -0.0000 -0.9814 0.1921
vn -0.0000 -0.9814 -0.1921
vn -0.1248 0.9781 -0.1664
vn -0.1248 0.9781 0.1664
vn -0.0000 0.9813 0.1923
vn -0.0000 0.9813 -0.1923
vn 0.0813 0.1118 0.9904
vn -0.0307 -0.0601 0.9977
vn 0.1363 -0.1315 0.9819
vn 0.2495 0.0205 0.9681
vn 0.1262 -0.9655 -0.2277
vn 0.1262 -0.9655 0.2277
vn -0.0000 -0.0000 1.0000
vn 0.0494 0.0514 0.9975
vn 0.1101 -0.0447 0.9929
vn -0.0000 -0.1982 0.9802
vn 0.1248 0.9781 -0.1664
vn 0.1248 0.9781 0.1664
vn -0.0494 0.0514 -0.9975
vn -0.1101 -0.0447 -0.9929
vn -0.0000 -0.1982 -0.9802
vn -0.0000 -0.0000 -1.0000
vn -0.0813 0.1118 -0.9904
vn -0.2495 0.0205 -0.9681
vn 0.8544 0.4800 0.1989
vn 0.9319 0.3118 0.1852
vn 0.9329 0.3088 -0.1851
vn 0.8549 0.4799 -0.1971
vn -0.1099 -0.0446 0.9929
vn -0.0494 0.0514 0.9975
vn -0.4515 -0.8689 0.2027
vn -0.4514 -0.8690 -0.2028
vn -0.2794 -0.9409 -0.1913
vn -0.2819 -0.9407 0.1887
vn -0.8802 -0.4326 0.1950
vn -0.8800 -0.4322 -0.1967
vn -0.7881 -0.5870 -0.1853
vn -0.7862 -0.5896 0.1853
vn -0.0813 0.1118 0.9904
vn -0.2482 0.0212 0.9685
vn -0.1359 -0.1347 0.9815
vn 0.0306 -0.0602 0.9977
vn 0.4514 -0.8690 0.2027
vn 0.2794 -0.9409 0.1913
vn 0.2819 -0.9407 -0.1887
vn 0.4515 -0.8689 -0.2027
vn -0.0829 0.2713 -0.9589
vn -0.5244 0.5095 -0.6822
vn -0.3967 0.7333 -0.5521
vn -0.1116 0.7315 -0.6727
vn -0.7967 0.5798 -0.1703
vn -0.5050 0.8513 -0.1421
vn -0.7969 0.5798 0.1696
vn -0.5244 0.5096 0.6821
vn -0.3967 0.7333 0.5521
vn -0.5050 0.8513 0.1422
vn -0.0825 0.2711 0.9590
vn -0.1116 0.7315 0.6727
vn -0.6077 -0.7715 -0.1886
vn -0.9429 -0.2784 -0.1829
vn -0.7671 -0.1954 -0.6110
vn -0.4606 -0.4878 -0.7416
vn -0.6609 0.2528 -0.7066
vn -0.1860 0.0356 -0.9819
vn -0.6093 -0.7696 0.1912
vn -0.4645 -0.4853 0.7408
vn -0.7712 -0.1918 0.6070
vn -0.9433 -0.2801 0.1779
vn -0.1882 0.0334 0.9816
vn -0.6612 0.2550 0.7055
vn 0.5123 -0.7917 -0.3328
vn 0.3941 -0.5409 -0.7430
vn 0.1575 -0.5207 -0.8391
vn 0.8141 -0.5325 -0.2319
vn 0.4762 -0.3009 -0.8262
vn 0.8139 -0.5323 0.2328
vn 0.5123 -0.7917 0.3328
vn 0.3941 -0.5409 0.7430
vn 0.4765 -0.3011 0.8260
vn 0.1575 -0.5207 0.8391
vn -0.1296 -0.6587 -0.7412
vn 0.2868 -0.7408 -0.6074
vn 0.3132 -0.9329 -0.1780
vn 0.1358 -0.1347 -0.9815
vn 0.5872 -0.3962 -0.7058
vn 0.3144 -0.9315 0.1830
vn 0.2814 -0.7395 0.6115
vn -0.1339 -0.6568 0.7420
vn 0.5854 -0.3971 0.7069
vn 0.5050 0.8513 -0.1421
vn 0.3967 0.7333 -0.5521
vn 0.1116 0.7315 -0.6727
vn 0.7969 0.5798 -0.1696
vn 0.5244 0.5096 -0.6821
vn 0.0825 0.2711 -0.9590
vn 0.7967 0.5798 0.1703
vn 0.5050 0.8513 0.1421
vn 0.3967 0.7333 0.5521
vn 0.5244 0.5095 0.6822
vn 0.1116 0.7315 0.6727
vn 0.0829 0.2713 0.9589
vn 0.6092 -0.7696 -0.1912
vn 0.4645 -0.4853 -0.7408
vn 0.7712 -0.1918 -0.6070
vn 0.9433 -0.2801 -0.1779
vn 0.1882 0.0334 -0.9816
vn 0.6612 0.2550 -0.7055
vn 0.6077 -0.7715 0.1886
vn 0.9429 -0.2784 0.1829
vn 0.7671 -0.1954 0.6110
vn 0.4606 -0.4878 0.7416
vn 0.6610 0.2528 0.7066
vn 0.1860 0.0356 0.9819
vn -0.4765 -0.3011 -0.8260
vn -0.3941 -0.5409 -0.7430
vn -0.1575 -0.5207 -0.8391
vn -0.8139 -0.5323 -0.2328
vn -0.5123 -0.7917 -0.3327
vn -0.8141 -0.5325 0.2319
vn -0.4762 -0.3009 0.8262
vn -0.3941 -0.5409 0.7430
vn -0.5123 -0.7917 0.3328
vn -0.1575 -0.5207 0.8391
vn -0.3144 -0.9315 -0.1830
vn -0.2814 -0.7395 -0.6115
vn 0.1339 -0.6569 -0.7420
vn -0.5854 -0.3972 -0.7068
vn -0.1363 -0.1315 -0.9819
vn 0.1296 -0.6587 0.7412
vn -0.2868 -0.7408 0.6074
vn -0.3131 -0.9329 0.1780
vn -0.5873 -0.3962 0.7058
vn -0.0000 0.1980 -0.9802
vn -0.0000 0.7112 -0.7030
vn -0.0000 0.1980 0.9802
vn -0.0000 0.7112 0.7030
vn -0.0936 0.2007 -0.9752
vn -0.5707 0.4103 -0.7113
vn -0.0925 0.2002 0.9754
vn -0.5710 0.4104 0.7110
vn -0.0000 -0.7115 -0.7027
vn -0.0000 -0.7115 0.7027
vn 0.6734 -0.2448 -0.6976
vn 0.6730 -0.2445 0.6981
vn -0.0306 -0.0602 -0.9977
vn -0.3029 -0.5835 -0.7535
vn -0.3032 -0.5833 0.7535
vn 0.5710 0.4104 -0.7110
vn 0.0925 0.2002 -0.9754
vn 0.5707 0.4103 0.7113
vn 0.0936 0.2007 0.9752
vn -0.6730 -0.2445 -0.6981
vn -0.6734 -0.2448 0.6976
vn 0.3032 -0.5833 -0.7535
vn 0.0307 -0.0601 -0.9977
vn 0.3029 -0.5835 0.7535
vn -1.0000 -0.0000 -0.0000
vn -0.9808 -0.1951 -0.0000
vn -0.9395 -0.2691 0.2118
vn -0.9808 -0.0000 0.1951
vn -0.0000 -1.0000 -0.0000
vn 0.1951 -0.9808 -0.0000
vn 0.1794 -0.9673 0.1794
vn -0.0000 -0.9808 0.1951
vn -0.0000 -0.1951 -0.9808
vn -0.1794 -0.1794 -0.9673
vn -0.1951 -0.0000 -0.9808
vn -0.0000 -0.1951 0.9808
vn 0.2118 -0.2691 0.9395
vn 0.1951 -0.0000 0.9808
vn 1.0000 -0.0000 -0.0000
vn 0.9808 -0.1951 -0.0000
vn 0.9395 -0.2691 -0.2118
vn 0.9808 -0.0000 -0.1951
vn -0.0000 1.0000 -0.0000
vn -0.0000 0.9808 0.1951
vn 0.1794 0.9673 0.1794
vn 0.1951 0.9808 -0.0000
vn -0.9673 -0.1794 0.1794
vn -0.0000 -0.9808 -0.1951
vn 0.0207 -0.9800 -0.1979
vn 0.0357 -0.9874 -0.1544
vn 0.1979 -0.9800 0.0207
vn 0.1544 -0.9874 0.0357
vn 0.9673 -0.1794 -0.1794
vn 0.1794 -0.1794 0.9673
vn -0.0207 -0.9800 0.1979
vn -0.0357 -0.9874 0.1544
vn -0.1951 -0.9808 -0.0000
vn -0.1979 -0.9800 -0.0207
vn -0.1544 -0.9874 -0.0357
vn -0.1793 0.1793 -0.9673
vn -0.6965 0.1726 -0.6965
vn -0.5773 0.5774 -0.5774
vn -0.1725 0.6965 -0.6965
vn -0.9673 0.1794 -0.1794
vn -0.6965 0.6965 -0.1726
vn -0.1794 0.9673 -0.1794
vn -0.9673 0.1794 0.1794
vn -0.6965 0.1726 0.6965
vn -0.5774 0.5773 0.5773
vn -0.6965 0.6965 0.1726
vn -0.1794 0.1794 0.9673
vn -0.1726 0.6965 0.6965
vn -0.1794 0.9673 0.1794
vn 0.1794 0.1794 -0.9673
vn 0.1726 0.6965 -0.6965
vn 0.5773 0.5774 -0.5774
vn 0.6965 0.1726 -0.6965
vn 0.1793 0.9673 -0.1794
vn 0.6965 0.6965 -0.1726
vn 0.9673 0.1794 -0.1793
vn 0.1794 0.1794 0.9673
vn 0.6965 0.1726 0.6965
vn 0.5774 0.5773 0.5773
vn 0.1726 0.6965 0.6965
vn 0.9673 0.1793 0.1793
vn 0.6965 0.6965 0.1726
vn -0.1785 -0.2218 -0.9586
vn -0.6817 -0.2656 -0.6817
vn -0.4203 -0.8042 -0.4203
vn -0.1442 -0.7628 -0.6303
vn -0.9586 -0.2218 -0.1785
vn -0.6303 -0.7628 -0.1441
vn -0.0880 -0.9922 -0.0880
vn -0.0357 -0.9874 -0.1544
vn -0.9586 -0.2218 0.1785
vn -0.6817 -0.2655 0.6817
vn -0.4203 -0.8042 0.4203
vn -0.6303 -0.7628 0.1441
vn -0.1785 -0.2217 0.9586
vn -0.1442 -0.7628 0.6303
vn -0.0880 -0.9922 0.0880
vn -0.1544 -0.9874 0.0357
vn 0.1785 -0.2217 -0.9586
vn 0.1442 -0.7628 -0.6303
vn 0.4203 -0.8042 -0.4203
vn 0.6817 -0.2656 -0.6817
vn 0.0880 -0.9922 -0.0880
vn 0.1544 -0.9874 -0.0357
vn 0.6303 -0.7628 -0.1442
vn 0.9586 -0.2218 -0.1785
vn 0.1785 -0.2218 0.9586
vn 0.6817 -0.2656 0.6817
vn 0.4203 -0.8042 0.4203
vn 0.1442 -0.7628 0.6303
vn 0.9586 -0.2218 0.1785
vn 0.6303 -0.7628 0.1441
vn 0.0880 -0.9922 0.0880
vn 0.0357 -0.9874 0.1544
vn 0.0894 -0.7358 -0.6713
vn 0.4326 -0.7910 -0.4326
vn 0.1212 -0.9852 -0.1212
vn 0.2118 -0.2691 -0.9395
vn 0.6739 -0.3030 -0.6739
vn 0.6713 -0.7358 -0.0894
vn 0.1979 -0.9800 -0.0207
vn -0.0207 -0.9800 -0.1979
vn -0.1212 -0.9852 -0.1212
vn -0.4326 -0.7911 -0.4326
vn -0.0894 -0.7358 -0.6713
vn -0.6713 -0.7358 -0.0894
vn -0.9395 -0.2692 -0.2118
vn -0.6739 -0.3030 -0.6739
vn -0.2118 -0.2692 -0.9395
vn -0.1979 -0.9800 0.0207
vn -0.1212 -0.9852 0.1212
vn -0.4326 -0.7910 0.4326
vn -0.6713 -0.7358 0.0894
vn -0.0894 -0.7358 0.6713
vn -0.2118 -0.2691 0.9395
vn -0.6739 -0.3030 0.6739
vn 0.0207 -0.9800 0.1979
vn 0.1212 -0.9852 0.1212
vn 0.4326 -0.7910 0.4326
vn 0.0894 -0.7358 0.6713
vn 0.6713 -0.7358 0.0894
vn 0.9395 -0.2691 0.2118
vn 0.6739 -0.3030 0.6739
vn -0.1726 -0.6965 -0.6965
vn -0.5774 -0.5773 -0.5774
vn -0.6965 -0.1726 -0.6965
vn -0.1794 -0.9673 -0.1794
vn -0.6965 -0.6965 -0.1726
vn -0.9673 -0.1794 -0.1794
vn -0.6965 -0.6965 0.1726
vn -0.5774 -0.5773 0.5773
vn -0.6965 -0.1726 0.6965
vn -0.1794 -0.9673 0.1794
vn -0.1726 -0.6965 0.6965
vn -0.1794 -0.1794 0.9673
vn 0.1794 -0.1794 -0.9673
vn 0.6965 -0.1726 -0.6965
vn 0.5773 -0.5774 -0.5773
vn 0.1726 -0.6965 -0.6965
vn 0.6965 -0.6965 -0.1726
vn 0.1794 -0.9673 -0.1794
vn 0.1726 -0.6965 0.6965
vn 0.5774 -0.5773 0.5773
vn 0.6965 -0.1726 0.6965
vn 0.6965 -0.6965 0.1726
vn 0.9673 -0.1794 0.1794
vn -0.0000 0.1951 -0.9808
vn -0.0000 0.7071 -0.7071
vn -0.0000 0.9808 -0.1951
vn -0.9808 0.1951 -0.0000
vn -0.7071 0.7071 -0.0000
vn -0.1951 0.9808 -0.0000
vn -0.0000 0.1951 0.9808
vn -0.0000 0.7071 0.7071
vn 0.9808 0.1951 -0.0000
vn 0.7071 0.7071 -0.0000
vn -0.0000 -0.7071 -0.7071
vn -0.7071 -0.7071 -0.0000
vn -0.0000 -0.7071 0.7071
vn 0.7071 -0.7071 -0.0000
vn 0.7071 -0.0000 -0.7071
vn 0.1951 -0.0000 -0.9808
vn 0.9808 -0.0000 0.1951
vn 0.7071 -0.0000 0.7071
vn -0.7071 -0.0000 0.7071
vn -0.1951 -0.0000 0.9808
vn -0.9808 -0.0000 -0.1951
vn -0.7071 -0.0000 -0.7071
vn -0.1794 0.1794 -0.9673
vn 0.9673 0.1794 0.1794
vn 0.9673 0.1794 -0.1794
vn 0.1794 0.9673 -0.1794
vn -0.5774 0.5774 -0.5773
vn -0.1726 0.6965 -0.6965
vn -0.5774 0.5773 0.5774
vn 0.5774 0.5774 -0.5773
vn 0.5774 0.5774 0.5773
vn 0.5773 -0.5774 -0.5774
vn -0.5773 -0.5774 -0.5774
vn -0.5773 -0.5774 0.5774
vn 0.5773 -0.5774 0.5773
vn -0.5774 0.5773 -0.5774
vn 0.5774 0.5773 -0.5773
vn -0.5774 -0.5773 0.5774
vn 0.9808 -0.0000 -0.1950
vt 0.003738 0.328329
vt 0.137322 0.328310
vt 0.136660 0.331851
vt 0.004427 0.331827
vt 0.261217 0.347768
vt 0.262169 0.595875
vt 0.259682 0.595522
vt 0.258701 0.348350
vt 0.155574 0.347805
vt 0.156191 0.344869
vt 0.257301 0.345516
vt 0.257913 0.348498
vt 0.036744 0.594312
vt 0.139251 0.596999
vt 0.109407 0.670768
vt 0.068214 0.673376
vt 0.103069 0.096216
vt 0.033719 0.096409
vt 0.012667 0.013387
vt 0.122050 0.008192
vt 0.152303 0.347084
vt 0.154151 0.343074
vt 0.155587 0.344624
vt 0.154796 0.347660
vt 0.258540 0.595985
vt 0.228631 0.669723
vt 0.187431 0.672273
vt 0.156024 0.593153
vt 0.184315 0.673509
vt 0.152303 0.593061
vt 0.154863 0.592689
vt 0.186620 0.672595
vt 0.243823 0.246725
vt 0.262884 0.334732
vt 0.153507 0.329636
vt 0.174479 0.246607
vt 0.033023 0.594223
vt 0.035582 0.593850
vt 0.067403 0.673698
vt 0.065101 0.674614
vt 0.033023 0.348148
vt 0.035533 0.348736
vt 0.144330 0.014688
vt 0.145024 0.011172
vt 0.277275 0.011123
vt 0.277936 0.014665
vt 0.112313 0.671947
vt 0.110164 0.671075
vt 0.140392 0.596536
vt 0.142878 0.596887
vt 0.154773 0.342538
vt 0.258739 0.343170
vt 0.257409 0.344881
vt 0.156088 0.344231
vt 0.138680 0.349616
vt 0.036318 0.348884
vt 0.036953 0.345904
vt 0.138082 0.346662
vt 0.141959 0.348903
vt 0.139462 0.349472
vt 0.138686 0.346425
vt 0.140125 0.344894
vt 0.139510 0.344356
vt 0.138191 0.346031
vt 0.036851 0.345262
vt 0.035525 0.343530
vt 0.103864 0.096705
vt 0.103474 0.096981
vt 0.103365 0.096699
vt 0.103474 0.096403
vt 0.103096 0.097137
vt 0.103070 0.096680
vt 0.033719 0.097322
vt 0.033343 0.097175
vt 0.033443 0.096895
vt 0.033734 0.096868
vt 0.032956 0.096913
vt 0.033328 0.096606
vt 0.136812 0.332667
vt 0.136691 0.332247
vt 0.136976 0.332227
vt 0.137172 0.332446
vt 0.137037 0.331952
vt 0.137419 0.332120
vt 0.004284 0.332634
vt 0.003927 0.332416
vt 0.004125 0.332192
vt 0.004416 0.332224
vt 0.003675 0.332099
vt 0.004045 0.331912
vt 0.258665 0.595415
vt 0.259068 0.595452
vt 0.259154 0.595650
vt 0.258719 0.594829
vt 0.259211 0.595279
vt 0.155845 0.591977
vt 0.155899 0.592579
vt 0.155490 0.592617
vt 0.155343 0.592440
vt 0.155403 0.592818
vt 0.257693 0.345035
vt 0.257543 0.345220
vt 0.257311 0.345199
vt 0.257911 0.345276
vt 0.257613 0.345442
vt 0.156171 0.344557
vt 0.155947 0.344563
vt 0.155802 0.344383
vt 0.155888 0.344779
vt 0.243823 0.246261
vt 0.244119 0.246241
vt 0.244228 0.246538
vt 0.243849 0.245803
vt 0.244227 0.245959
vt 0.244618 0.246235
vt 0.174478 0.245694
vt 0.174494 0.246147
vt 0.174203 0.246121
vt 0.174103 0.245841
vt 0.174089 0.246409
vt 0.173717 0.246104
vt 0.277425 0.010315
vt 0.277781 0.010537
vt 0.277581 0.010760
vt 0.277290 0.010725
vt 0.278031 0.010857
vt 0.277658 0.011041
vt 0.144879 0.010356
vt 0.144997 0.010776
vt 0.144712 0.010793
vt 0.144518 0.010574
vt 0.144648 0.011068
vt 0.144268 0.010897
vt 0.036063 0.593600
vt 0.036209 0.593777
vt 0.036122 0.593978
vt 0.036564 0.593137
vt 0.036619 0.593739
vt 0.139430 0.595843
vt 0.139921 0.596293
vt 0.139778 0.596466
vt 0.139376 0.596429
vt 0.139864 0.596664
vt 0.036933 0.345589
vt 0.036707 0.345595
vt 0.036562 0.345412
vt 0.036648 0.345813
vt 0.036343 0.345656
vt 0.138471 0.346186
vt 0.138322 0.346368
vt 0.138092 0.346347
vt 0.138391 0.346589
vt 0.122969 0.008391
vt 0.122510 0.008291
vt 0.011801 0.013607
vt 0.012233 0.013497
vt 0.138208 0.328416
vt 0.137756 0.328375
vt 0.002858 0.328445
vt 0.003307 0.328383
vt 0.229015 0.669879
vt 0.229387 0.670030
vt 0.187019 0.672437
vt 0.258302 0.348429
vt 0.155191 0.347724
vt 0.259366 0.343714
vt 0.259062 0.343438
vt 0.154453 0.342802
vt 0.263344 0.334632
vt 0.263802 0.334533
vt 0.153073 0.329526
vt 0.152640 0.329417
vt 0.278370 0.014615
vt 0.278823 0.014558
vt 0.143900 0.014619
vt 0.143451 0.014573
vt 0.067803 0.673540
vt 0.109791 0.670924
vt 0.035932 0.348801
vt 0.139067 0.349549
vt 0.035199 0.343798
vt 0.034890 0.344074
vt 0.139826 0.344621
vt 0.231535 0.670905
vt 0.647378 0.030070
vt 0.647381 0.029490
vt 0.648377 0.029489
vt 0.648398 0.030066
vt 0.695346 0.639255
vt 0.695352 0.640841
vt 0.694411 0.640828
vt 0.694393 0.639258
vt 0.280612 0.059594
vt 0.279983 0.059598
vt 0.279978 0.058040
vt 0.280588 0.058016
vt 0.664963 0.704309
vt 0.665554 0.704312
vt 0.665546 0.705914
vt 0.664970 0.705937
vt 0.325433 0.719822
vt 0.325429 0.720400
vt 0.324435 0.720399
vt 0.324415 0.719823
vt 0.651639 0.704022
vt 0.652658 0.704026
vt 0.652633 0.705607
vt 0.651652 0.705631
vt 0.634073 0.003496
vt 0.634067 0.002871
vt 0.634993 0.002870
vt 0.635018 0.003476
vt 0.298170 0.693888
vt 0.310784 0.705563
vt 0.310832 0.707212
vt 0.298235 0.695524
vt 0.639764 0.732010
vt 0.651185 0.719466
vt 0.652205 0.719429
vt 0.640732 0.731960
vt 0.338676 0.746379
vt 0.338681 0.747001
vt 0.337756 0.747002
vt 0.337734 0.746398
vt 0.691658 0.690888
vt 0.692287 0.690885
vt 0.692291 0.692444
vt 0.691680 0.692468
vt 0.674671 0.056077
vt 0.662057 0.044381
vt 0.662011 0.042731
vt 0.674607 0.054439
vt 0.332382 0.018347
vt 0.320947 0.030938
vt 0.319924 0.030975
vt 0.331412 0.018398
vt 0.318570 0.044810
vt 0.318661 0.044292
vt 0.319087 0.044434
vt 0.319056 0.044856
vt 0.319457 0.043913
vt 0.319507 0.044399
vt 0.318943 0.044010
vt 0.319532 0.044873
vt 0.648128 0.041391
vt 0.648649 0.041479
vt 0.648510 0.041908
vt 0.648088 0.041879
vt 0.649033 0.042277
vt 0.648546 0.042330
vt 0.648934 0.041763
vt 0.648070 0.042352
vt 0.323801 0.707650
vt 0.324287 0.707596
vt 0.324324 0.708016
vt 0.323902 0.708162
vt 0.324763 0.707570
vt 0.324745 0.708044
vt 0.324705 0.708531
vt 0.324186 0.708443
vt 0.653596 0.705672
vt 0.653503 0.706186
vt 0.653078 0.706046
vt 0.653108 0.705626
vt 0.652701 0.706566
vt 0.652656 0.706080
vt 0.653221 0.706474
vt 0.292202 0.057616
vt 0.292128 0.057111
vt 0.292593 0.056915
vt 0.292743 0.057402
vt 0.331778 0.017308
vt 0.331570 0.017849
vt 0.331082 0.017706
vt 0.331271 0.017237
vt 0.330714 0.018183
vt 0.293291 0.057234
vt 0.293062 0.056538
vt 0.635474 0.015022
vt 0.635977 0.014948
vt 0.636171 0.015412
vt 0.635686 0.015560
vt 0.675702 0.054815
vt 0.675158 0.054603
vt 0.675305 0.054112
vt 0.675775 0.054305
vt 0.674830 0.053737
vt 0.635851 0.016106
vt 0.636545 0.015882
vt 0.297140 0.695150
vt 0.297684 0.695361
vt 0.297538 0.695852
vt 0.297068 0.695659
vt 0.298013 0.696226
vt 0.336914 0.733776
vt 0.337078 0.734321
vt 0.336593 0.734468
vt 0.336221 0.733998
vt 0.337288 0.734859
vt 0.336786 0.734932
vt 0.680056 0.692861
vt 0.680130 0.693366
vt 0.679665 0.693562
vt 0.679515 0.693074
vt 0.640366 0.733047
vt 0.640573 0.732507
vt 0.641061 0.732650
vt 0.640871 0.733118
vt 0.641429 0.732175
vt 0.678966 0.693243
vt 0.679195 0.693940
vt 0.311353 0.707643
vt 0.311225 0.708374
vt 0.310603 0.707916
vt 0.311855 0.708082
vt 0.311814 0.708595
vt 0.324879 0.720884
vt 0.324163 0.721023
vt 0.323935 0.720453
vt 0.325312 0.721395
vt 0.324620 0.721627
vt 0.305682 0.045459
vt 0.305447 0.044764
vt 0.306056 0.044306
vt 0.306193 0.045026
vt 0.319497 0.031495
vt 0.318773 0.031367
vt 0.319225 0.030752
vt 0.319061 0.031992
vt 0.318552 0.031948
vt 0.306684 0.044581
vt 0.306628 0.044080
vt 0.647497 0.028493
vt 0.648189 0.028259
vt 0.648649 0.028863
vt 0.647931 0.029004
vt 0.661490 0.042299
vt 0.661619 0.041567
vt 0.662242 0.042026
vt 0.660989 0.041859
vt 0.661030 0.041345
vt 0.648879 0.029434
vt 0.666551 0.705034
vt 0.666786 0.705730
vt 0.666175 0.706190
vt 0.666038 0.705468
vt 0.652631 0.718912
vt 0.653352 0.719040
vt 0.652901 0.719653
vt 0.653066 0.718418
vt 0.653573 0.718462
vt 0.665602 0.706418
vt 0.279476 0.058024
vt 0.279543 0.057620
vt 0.279945 0.057539
vt 0.997729 0.002894
vt 0.997752 0.002387
vt 0.998160 0.002461
vt 0.998235 0.002869
vt 0.332026 0.005213
vt 0.331530 0.005192
vt 0.331601 0.004794
vt 0.331998 0.004719
vt 0.635008 0.002372
vt 0.635409 0.002438
vt 0.635490 0.002836
vt 0.693862 0.003591
vt 0.693365 0.003567
vt 0.693436 0.003168
vt 0.693834 0.003093
vt 0.687864 0.055045
vt 0.687886 0.054546
vt 0.688287 0.054618
vt 0.688362 0.055018
vt 0.284988 0.694931
vt 0.284966 0.695430
vt 0.284565 0.695358
vt 0.284491 0.694958
vt 0.337743 0.747497
vt 0.337345 0.747434
vt 0.337263 0.747040
vt 0.998337 0.640070
vt 0.998834 0.640094
vt 0.998763 0.640492
vt 0.998365 0.640567
vt 0.692793 0.692461
vt 0.692726 0.692865
vt 0.692324 0.692945
vt 0.694388 0.641335
vt 0.693979 0.641261
vt 0.693904 0.640853
vt 0.640101 0.745116
vt 0.640596 0.745138
vt 0.640524 0.745535
vt 0.640128 0.745610
vt 0.318498 0.046431
vt 0.319008 0.046444
vt 0.319513 0.046451
vt 0.647115 0.041338
vt 0.647098 0.041841
vt 0.647089 0.042342
vt 0.653671 0.704048
vt 0.653164 0.704035
vt 0.325714 0.708586
vt 0.325731 0.708085
vt 0.325741 0.707585
vt 0.305653 0.047098
vt 0.306164 0.046638
vt 0.306676 0.046178
vt 0.646475 0.028470
vt 0.646930 0.028981
vt 0.666580 0.703392
vt 0.666067 0.703852
vt 0.326331 0.721419
vt 0.325878 0.720908
vt 0.323896 0.719839
vt 0.312431 0.708616
vt 0.312438 0.708098
vt 0.652765 0.707152
vt 0.653287 0.707105
vt 0.654135 0.706259
vt 0.654180 0.705729
vt 0.648919 0.030049
vt 0.660413 0.041324
vt 0.660405 0.041842
vt 0.319396 0.043325
vt 0.318865 0.043376
vt 0.318032 0.044227
vt 0.317989 0.044749
vt 0.292226 0.059256
vt 0.292735 0.059059
vt 0.293245 0.058868
vt 0.634491 0.015046
vt 0.634691 0.015556
vt 0.634881 0.016068
vt 0.680033 0.691219
vt 0.679523 0.691415
vt 0.679012 0.691607
vt 0.338270 0.734835
vt 0.338071 0.734326
vt 0.337882 0.733816
vt 0.997747 0.004463
vt 0.998256 0.004459
vt 0.279476 0.059598
vt 0.694791 0.003572
vt 0.694781 0.003063
vt 0.634068 0.002367
vt 0.693883 0.639262
vt 0.692795 0.690885
vt 0.997408 0.640088
vt 0.997418 0.640598
vt 0.338679 0.747504
vt 0.337229 0.746421
vt 0.285587 0.695447
vt 0.285599 0.694943
vt 0.640329 0.733679
vt 0.640821 0.733708
vt 0.680735 0.693313
vt 0.680699 0.692807
vt 0.635521 0.003453
vt 0.687265 0.054529
vt 0.687253 0.055033
vt 0.331814 0.016674
vt 0.331321 0.016646
vt 0.291524 0.057164
vt 0.291560 0.057669
vt 0.307265 0.046181
vt 0.307257 0.044558
vt 0.499289 0.929227
vt 0.528368 0.932475
vt 0.524494 0.996971
vt 0.495274 0.996310
vt 0.497038 0.850291
vt 0.497252 0.869736
vt 0.030206 0.869835
vt 0.030464 0.850293
vt 0.529919 0.932647
vt 0.963233 0.933167
vt 0.967435 0.997048
vt 0.526041 0.997034
vt 0.529775 0.832431
vt 0.528685 0.804025
vt 0.965148 0.804490
vt 0.963888 0.832927
vt 0.997855 0.996519
vt 0.968972 0.996976
vt 0.964769 0.932993
vt 0.993767 0.929945
vt 0.529719 0.900652
vt 0.529789 0.833971
vt 0.963874 0.834468
vt 0.963601 0.901158
vt 0.029481 0.849323
vt 0.009551 0.850254
vt 0.009656 0.804668
vt 0.029471 0.805805
vt 0.030194 0.870878
vt 0.497265 0.870770
vt 0.499112 0.915341
vt 0.028365 0.915354
vt 0.030448 0.804835
vt 0.029438 0.785495
vt 0.498232 0.785630
vt 0.497191 0.804948
vt 0.498158 0.805917
vt 0.518026 0.805044
vt 0.517800 0.850518
vt 0.498023 0.849331
vt 0.030525 0.849254
vt 0.030518 0.805874
vt 0.497120 0.805981
vt 0.496978 0.849257
vt 0.529723 0.902195
vt 0.528903 0.902095
vt 0.529093 0.901419
vt 0.529752 0.901419
vt 0.498481 0.929125
vt 0.498657 0.928477
vt 0.499325 0.928416
vt 0.528913 0.900750
vt 0.495207 0.997124
vt 0.494555 0.996975
vt 0.494466 0.996312
vt 0.529816 0.833197
vt 0.529163 0.833202
vt 0.528978 0.832545
vt 0.528976 0.833870
vt 0.963597 0.902702
vt 0.963568 0.901934
vt 0.964227 0.901936
vt 0.964407 0.902607
vt 0.964417 0.901263
vt 0.993732 0.929132
vt 0.994395 0.929199
vt 0.994564 0.929844
vt 0.964696 0.833048
vt 0.964500 0.833709
vt 0.963847 0.833702
vt 0.998662 0.996521
vt 0.998568 0.997178
vt 0.997920 0.997319
vt 0.964677 0.834373
vt 0.963296 0.931623
vt 0.964126 0.931744
vt 0.963921 0.932434
vt 0.963243 0.932402
vt 0.964002 0.933103
vt 0.964585 0.932184
vt 0.529856 0.931108
vt 0.529908 0.931877
vt 0.529233 0.931909
vt 0.529037 0.931223
vt 0.529152 0.932585
vt 0.528560 0.931649
vt 0.525269 0.996971
vt 0.525246 0.997631
vt 0.524567 0.997790
vt 0.525918 0.997838
vt 0.527895 0.804008
vt 0.528003 0.803372
vt 0.528636 0.803250
vt 0.965198 0.803709
vt 0.965831 0.803837
vt 0.965932 0.804475
vt 0.968193 0.996981
vt 0.968218 0.997636
vt 0.967556 0.997838
vt 0.968897 0.997799
vt 0.029900 0.850206
vt 0.030043 0.849735
vt 0.030506 0.849768
vt 0.030006 0.849275
vt 0.029578 0.849884
vt 0.029573 0.805238
vt 0.030040 0.805392
vt 0.030003 0.805853
vt 0.030497 0.805358
vt 0.029897 0.804931
vt 0.496996 0.849773
vt 0.497453 0.849742
vt 0.497591 0.850206
vt 0.497492 0.849281
vt 0.497920 0.849896
vt 0.497747 0.805045
vt 0.497600 0.805505
vt 0.497143 0.805469
vt 0.497635 0.805963
vt 0.498063 0.805359
vt 0.497800 0.869799
vt 0.497676 0.870249
vt 0.497237 0.870254
vt 0.518350 0.850558
vt 0.518254 0.851002
vt 0.517804 0.851068
vt 0.497803 0.870692
vt 0.030223 0.870356
vt 0.029780 0.870350
vt 0.029659 0.869897
vt 0.029649 0.870798
vt 0.009541 0.850811
vt 0.009091 0.850737
vt 0.009003 0.850290
vt 0.009105 0.804630
vt 0.009199 0.804185
vt 0.009650 0.804118
vt 0.028332 0.915872
vt 0.027911 0.915788
vt 0.027841 0.915364
vt 0.028902 0.785489
vt 0.028973 0.785057
vt 0.029402 0.784972
vt 0.498267 0.785103
vt 0.498695 0.785191
vt 0.498763 0.785623
vt 0.499649 0.915352
vt 0.499577 0.915786
vt 0.499145 0.915872
vt 0.518037 0.804489
vt 0.518486 0.804563
vt 0.518573 0.805010
vt 0.317904 0.046413
vt 0.307240 0.044039
vt 0.319041 0.032568
vt 0.318526 0.032558
vt 0.649568 0.041682
vt 0.649619 0.042213
vt 0.648188 0.040807
vt 0.648711 0.040849
vt 0.664987 0.706459
vt 0.653087 0.717844
vt 0.653599 0.717855
vt 0.323269 0.708245
vt 0.323216 0.707715
vt 0.324644 0.709113
vt 0.324123 0.709071
vt 0.325689 0.709174
vt 0.654265 0.704065
vt 0.647139 0.040748
vt 0.280567 0.057510
vt 0.332016 0.005820
vt 0.331514 0.005809
vt 0.676370 0.054356
vt 0.676341 0.054852
vt 0.635420 0.014384
vt 0.635922 0.014347
vt 0.691701 0.692974
vt 0.640112 0.744510
vt 0.640613 0.744523
vt 0.296474 0.695609
vt 0.296502 0.695113
vt 0.337342 0.735495
vt 0.336840 0.735532
vt 0.680655 0.691211
vt 0.338285 0.735455
vt 0.634475 0.014426
vt 0.291605 0.059264
vt 0.285595 0.693371
vt 0.296518 0.693516
vt 0.291604 0.376475
vt 0.280610 0.376561
vt 0.297146 0.693514
vt 0.292229 0.376470
vt 0.687255 0.056606
vt 0.676324 0.056450
vt 0.680945 0.373745
vt 0.691948 0.373668
vt 0.675695 0.056452
vt 0.680320 0.373749
vt 0.660430 0.043481
vt 0.649725 0.043872
vt 0.654979 0.373919
vt 0.665627 0.373848
vt 0.649138 0.043897
vt 0.654388 0.373923
vt 0.312411 0.706460
vt 0.323108 0.706056
vt 0.317549 0.376277
vt 0.306910 0.376358
vt 0.323695 0.706030
vt 0.318140 0.376272
vt 0.311826 0.706473
vt 0.306319 0.376362
vt 0.688388 0.056593
vt 0.687877 0.056601
vt 0.693083 0.373660
vt 0.692573 0.373664
vt 0.693843 0.005145
vt 0.693332 0.005139
vt 0.693593 0.322129
vt 0.693083 0.322129
vt 0.284462 0.693385
vt 0.284974 0.693377
vt 0.279476 0.376570
vt 0.279985 0.376566
vt 0.998356 0.638516
vt 0.998867 0.638521
vt 0.998564 0.321550
vt 0.999074 0.321549
vt 0.675184 0.056262
vt 0.679809 0.373752
vt 0.679299 0.373756
vt 0.297657 0.693703
vt 0.292739 0.376466
vt 0.293249 0.376462
vt 0.661537 0.043925
vt 0.661016 0.043470
vt 0.666728 0.373840
vt 0.666219 0.373843
vt 0.667238 0.373837
vt 0.311305 0.706018
vt 0.305809 0.376366
vt 0.305300 0.376370
vt 0.648631 0.043918
vt 0.648123 0.043935
vt 0.653878 0.373927
vt 0.653369 0.373930
vt 0.324201 0.706009
vt 0.324706 0.705992
vt 0.318649 0.376269
vt 0.319158 0.376265
vt 0.647102 0.043955
vt 0.652333 0.373937
vt 0.694796 0.005148
vt 0.694546 0.322128
vt 0.997403 0.638513
vt 0.997611 0.321551
vt 0.846078 0.321855
vt 0.846516 0.639256
vt 0.996794 0.004466
vt 0.996788 0.002880
vt 0.845667 0.002839
vt 0.845670 0.004425
vt 0.320193 0.376256
vt 0.325733 0.705969
vt 0.486260 0.375082
vt 0.488652 0.706763
vt 0.320514 0.044845
vt 0.320531 0.046454
vt 0.483829 0.041766
vt 0.483842 0.043409
vt 0.332955 0.005823
vt 0.332762 0.016694
vt 0.483624 0.014398
vt 0.483538 0.003460
vt 0.332757 0.017321
vt 0.483629 0.015021
vt 0.639174 0.744506
vt 0.639383 0.733658
vt 0.488825 0.735714
vt 0.488893 0.746631
vt 0.639389 0.733032
vt 0.488821 0.735093
vt 0.320068 0.032559
vt 0.320441 0.043257
vt 0.483817 0.040168
vt 0.483740 0.029592
vt 0.320471 0.043841
vt 0.483821 0.040755
vt 0.652065 0.717850
vt 0.651721 0.707218
vt 0.488672 0.709998
vt 0.488733 0.720552
vt 0.651692 0.706635
vt 0.488668 0.709412
vt 0.639185 0.745632
vt 0.639177 0.745124
vt 0.488900 0.747758
vt 0.488897 0.747252
vt 0.695346 0.641351
vt 0.846520 0.640842
vt 0.846521 0.641351
vt 0.332943 0.004695
vt 0.332952 0.005204
vt 0.483530 0.002331
vt 0.483533 0.002838
vt 0.996794 0.002370
vt 0.845666 0.002331
vt 0.639581 0.732522
vt 0.488818 0.734586
vt 0.488815 0.734079
vt 0.332565 0.017833
vt 0.483633 0.015529
vt 0.483636 0.016037
vt 0.651631 0.718950
vt 0.652075 0.718436
vt 0.488739 0.721645
vt 0.488736 0.721139
vt 0.488743 0.722150
vt 0.320500 0.031456
vt 0.320056 0.031972
vt 0.483732 0.028497
vt 0.483735 0.029004
vt 0.483728 0.027990
vt 0.651668 0.706132
vt 0.488665 0.708907
vt 0.488662 0.708403
vt 0.320496 0.044344
vt 0.483825 0.041261
vt 0.125522 0.008946
vt 0.106383 0.096687
vt 0.142536 0.008591
vt 0.142942 0.008192
vt 0.142158 0.008999
vt 0.279765 0.008589
vt 0.280137 0.008996
vt 0.279366 0.008192
vt 0.001955 0.334397
vt 0.001578 0.333991
vt 0.002361 0.334793
vt 0.139166 0.334393
vt 0.138766 0.334793
vt 0.139538 0.333984
vt 0.140836 0.014149
vt 0.150233 0.328806
vt 0.171255 0.246065
vt 0.281447 0.014156
vt 0.247137 0.246251
vt 0.266355 0.333975
vt 0.030495 0.096954
vt 0.009393 0.014220
vt 0.000248 0.328873
vt 0.140836 0.328817
s 1
usemtl FUNITURE_020_MAT
f 660/1/1 657/2/2 22/3/3 30/4/4
f 668/5/5 635/6/6 37/7/7 663/8/8
f 664/9/9 63/10/10 57/11/11 661/12/12
f 99/13/13 106/14/14 52/15/15 50/16/16
f 3/17/17 10/18/18 19/19/19 15/20/20
f 667/21/21 628/22/22 64/23/23 666/24/24
f 35/25/25 50/26/16 52/27/15 43/28/26
f 637/29/27 638/30/28 44/31/29 53/32/30
f 69/33/31 15/34/20 19/35/19 77/36/32
f 639/37/33 97/38/34 49/39/35 636/40/36
f 654/41/37 647/42/38 97/38/34 639/37/33
f 644/43/39 91/44/40 85/45/41 641/46/42
f 637/47/27 53/48/30 105/49/43 640/50/44
f 626/51/45 625/52/46 55/53/47 62/54/48
f 652/55/49 649/56/50 112/57/51 120/58/52
f 653/59/53 650/60/54 119/61/55 632/62/56
f 634/63/57 118/64/58 111/65/59 629/66/60
f 1/67/61 4/68/62 5/69/63 7/70/64
f 2/71/65 6/72/66 5/69/63 4/68/62
f 3/17/17 7/70/64 5/69/63 6/72/66
f 8/73/67 11/74/68 12/75/69 14/76/70
f 9/77/71 13/78/72 12/75/69 11/74/68
f 10/18/18 14/76/70 12/75/69 13/78/72
f 21/79/73 24/80/74 25/81/75 27/82/76
f 22/3/3 26/83/77 25/81/75 24/80/74
f 23/84/78 27/82/76 25/81/75 26/83/77
f 28/85/79 31/86/80 32/87/81 34/88/82
f 29/89/83 33/90/84 32/87/81 31/86/80
f 30/4/4 34/88/82 32/87/81 33/90/84
f 35/25/25 38/91/85 39/92/86 41/93/87
f 36/94/88 40/95/89 39/92/86 38/91/85
f 37/7/7 41/93/87 39/92/86 40/95/89
f 42/96/90 45/97/91 46/98/92 48/99/93
f 43/28/26 47/100/94 46/98/92 45/97/91
f 44/31/29 48/99/93 46/98/92 47/100/94
f 55/53/47 58/101/95 59/102/96 61/103/97
f 56/104/98 60/105/99 59/102/96 58/101/95
f 57/11/11 61/103/97 59/102/96 60/105/99
f 62/54/48 65/106/100 66/107/101 68/108/102
f 63/10/10 67/109/103 66/107/101 65/106/100
f 64/23/23 68/108/102 66/107/101 67/109/103
f 69/33/31 72/110/104 73/111/105 75/112/106
f 70/113/107 74/114/108 73/111/105 72/110/104
f 71/115/109 75/112/106 73/111/105 74/114/108
f 76/116/110 79/117/111 80/118/112 82/119/113
f 77/36/32 81/120/114 80/118/112 79/117/111
f 78/121/115 82/119/113 80/118/112 81/120/114
f 83/122/116 86/123/117 87/124/118 89/125/119
f 84/126/120 88/127/121 87/124/118 86/123/117
f 85/45/41 89/125/119 87/124/118 88/127/121
f 90/128/122 93/129/123 94/130/124 96/131/125
f 91/44/40 95/132/126 94/130/124 93/129/123
f 92/133/127 96/131/125 94/130/124 95/132/126
f 97/38/34 100/134/128 101/135/129 103/136/130
f 98/137/131 102/138/132 101/135/129 100/134/128
f 99/13/13 103/136/130 101/135/129 102/138/132
f 104/139/133 107/140/134 108/141/135 110/142/136
f 105/49/43 109/143/137 108/141/135 107/140/134
f 106/14/14 110/142/136 108/141/135 109/143/137
f 111/65/59 114/144/138 115/145/139 117/146/140
f 112/57/51 116/147/141 115/145/139 114/144/138
f 113/148/142 117/146/140 115/145/139 116/147/141
f 118/64/58 121/149/143 122/150/144 124/151/145
f 119/61/55 123/152/146 122/150/144 121/149/143
f 120/58/52 124/151/145 122/150/144 123/152/146
f 16/153/147 1/67/61 7/70/64 17/154/148
f 17/154/148 7/70/64 3/17/17 15/20/20
f 2/71/65 8/73/67 14/76/70 6/72/66
f 6/72/66 14/76/70 10/18/18 3/17/17
f 9/77/71 18/155/149 20/156/150 13/78/72
f 13/78/72 20/156/150 19/19/19 10/18/18
f 21/79/73 28/85/79 34/88/82 24/80/74
f 24/80/74 34/88/82 30/4/4 22/3/3
f 655/157/151 23/84/78 26/83/77 656/158/152
f 656/158/152 26/83/77 22/3/3 657/2/2
f 658/159/153 9/77/71 11/74/68 659/160/154
f 659/160/154 11/74/68 8/73/67 660/1/1
f 50/26/16 35/25/25 41/93/87 51/161/155
f 51/161/155 41/93/87 37/7/7 49/162/35
f 35/25/25 43/28/26 45/97/91 38/91/85
f 38/91/85 45/97/91 42/96/90 36/94/88
f 43/28/26 52/27/15 54/163/156 47/100/94
f 47/100/94 54/163/156 53/32/30 44/31/29
f 57/11/11 63/10/10 65/106/100 61/103/97
f 61/103/97 65/106/100 62/54/48 55/53/47
f 661/12/12 57/11/11 60/105/99 662/164/157
f 662/164/157 60/105/99 56/104/98 663/8/8
f 664/9/9 42/96/90 48/99/93 665/165/158
f 665/165/158 48/99/93 44/31/29 666/24/24
f 623/166/159 56/104/98 58/101/95 624/167/160
f 624/167/160 58/101/95 55/53/47 625/52/46
f 626/51/45 62/54/48 68/108/102 627/168/161
f 627/168/161 68/108/102 64/23/23 628/22/22
f 15/34/20 69/33/31 75/112/106 17/169/148
f 17/169/148 75/112/106 71/115/109 16/170/147
f 69/33/31 77/36/32 79/117/111 72/110/104
f 72/110/104 79/117/111 76/116/110 70/113/107
f 77/36/32 19/35/19 20/171/150 81/120/114
f 81/120/114 20/171/150 18/172/149 78/121/115
f 85/45/41 91/44/40 93/129/123 89/125/119
f 89/125/119 93/129/123 90/128/122 83/122/116
f 641/46/42 85/45/41 88/127/121 642/173/162
f 642/173/162 88/127/121 84/126/120 643/174/163
f 644/43/39 76/116/110 82/119/113 645/175/164
f 645/175/164 82/119/113 78/121/115 646/176/165
f 49/39/35 97/38/34 103/136/130 51/177/155
f 51/177/155 103/136/130 99/13/13 50/16/16
f 98/137/131 104/139/133 110/142/136 102/138/132
f 102/138/132 110/142/136 106/14/14 99/13/13
f 105/49/43 53/48/30 54/178/156 109/143/137
f 109/143/137 54/178/156 52/15/15 106/14/14
f 111/65/59 118/64/58 124/151/145 114/144/138
f 114/144/138 124/151/145 120/58/52 112/57/51
f 647/42/38 113/148/142 116/147/141 648/179/166
f 648/179/166 116/147/141 112/57/51 649/56/50
f 650/60/54 105/49/43 107/140/134 651/180/167
f 651/180/167 107/140/134 104/139/133 652/55/49
f 629/66/60 111/65/59 117/146/140 630/181/168
f 630/181/168 117/146/140 113/148/142 631/182/169
f 632/62/56 119/61/55 121/149/143 633/183/170
f 633/183/170 121/149/143 118/64/58 634/63/57
f 635/6/6 636/184/36 49/162/35 37/7/7
f 532/185/171 493/186/172 210/187/173 378/188/174
f 548/189/175 519/190/176 247/191/177 456/192/178
f 476/193/36 453/194/179 225/195/180 412/196/181
f 468/197/27 435/198/182 219/199/183 376/200/184
f 528/201/185 499/202/186 191/203/187 366/204/188
f 543/205/189 423/206/190 148/207/191 488/208/192
f 540/209/171 517/210/172 232/211/193 402/212/174
f 442/213/194 425/214/194 189/215/195 172/216/196
f 512/217/176 495/218/176 217/219/197 182/220/198
f 536/221/185 523/222/186 240/223/199 390/224/188
f 472/225/27 459/226/182 246/227/200 400/228/184
f 448/229/178 431/230/178 208/231/201 164/232/202
f 506/233/203 489/234/203 199/235/204 155/236/205
f 125/237/206 128/238/207 129/239/208 131/240/209
f 126/241/210 130/242/211 129/239/208 128/243/207
f 127/244/212 131/240/209 129/239/208 130/242/211
f 132/245/213 135/246/214 136/247/215 138/248/216
f 133/249/217 137/250/218 136/247/215 135/251/214
f 134/252/219 138/248/216 136/247/215 137/250/218
f 139/253/220 142/254/221 143/255/222 145/256/223
f 140/257/224 144/258/225 143/255/222 142/254/221
f 141/259/226 145/260/223 143/255/222 144/258/225
f 146/261/227 149/262/228 150/263/229 152/264/230
f 147/265/231 151/266/232 150/263/229 149/267/228
f 148/207/191 152/264/230 150/263/229 151/266/232
f 153/268/233 157/269/234 158/270/235 161/271/236
f 154/272/237 159/273/238 158/274/235 157/275/234
f 155/236/205 160/276/239 158/274/235 159/273/238
f 156/277/240 161/271/236 158/270/235 160/278/239
f 162/279/241 166/280/242 167/281/243 170/282/244
f 163/283/245 168/284/246 167/285/243 166/286/242
f 164/232/202 169/287/247 167/285/243 168/284/246
f 165/288/248 170/282/244 167/281/243 169/289/247
f 171/290/249 175/291/250 176/292/251 179/293/252
f 172/216/196 177/294/253 176/292/251 175/291/250
f 173/295/254 178/296/255 176/297/251 177/298/253
f 174/299/256 179/300/252 176/297/251 178/296/255
f 180/301/257 184/302/258 185/303/259 188/304/260
f 181/305/261 186/306/262 185/307/259 184/308/258
f 182/220/198 187/309/263 185/307/259 186/306/262
f 183/310/264 188/304/260 185/303/259 187/311/263
f 189/215/195 193/312/265 194/313/266 197/314/267
f 190/315/268 195/316/269 194/313/266 193/312/265
f 191/203/187 196/317/270 194/318/266 195/319/269
f 192/320/271 197/321/267 194/318/266 196/317/270
f 198/322/272 202/323/273 203/324/274 206/325/275
f 199/235/204 204/326/276 203/327/274 202/328/273
f 200/329/277 205/330/278 203/327/274 204/326/276
f 201/331/279 206/325/275 203/324/274 205/332/278
f 207/333/280 211/334/281 212/335/282 215/336/283
f 208/231/201 213/337/284 212/338/282 211/339/281
f 209/340/285 214/341/286 212/338/282 213/337/284
f 210/187/173 215/336/283 212/335/282 214/342/286
f 216/343/287 220/344/288 221/345/289 224/346/290
f 217/219/197 222/347/291 221/348/289 220/349/288
f 218/350/292 223/351/293 221/348/289 222/347/291
f 219/199/183 224/346/290 221/345/289 223/352/293
f 225/195/180 228/353/294 229/354/295 231/355/296
f 226/356/297 230/357/298 229/358/295 228/359/294
f 227/360/299 231/361/296 229/362/295 230/363/298
f 232/211/193 235/364/300 236/365/301 238/366/302
f 233/367/303 237/368/304 236/369/301 235/370/300
f 234/371/305 238/372/302 236/373/301 237/374/304
f 239/375/306 242/376/307 243/377/308 245/378/309
f 240/223/199 244/379/310 243/380/308 242/381/307
f 241/382/311 245/383/309 243/384/308 244/385/310
f 246/227/200 249/386/312 250/387/313 252/388/314
f 247/191/177 251/389/315 250/390/313 249/391/312
f 248/392/316 252/393/314 250/394/313 251/395/315
f 414/396/317 125/237/206 131/240/209 415/397/318
f 415/397/318 131/240/209 127/244/212 417/398/319
f 478/399/320 132/245/213 138/248/216 479/400/321
f 479/400/321 138/248/216 134/252/219 481/401/322
f 420/402/323 146/261/227 152/264/230 421/403/324
f 421/403/324 152/264/230 148/207/191 423/206/190
f 484/404/325 141/259/226 144/258/225 485/405/326
f 485/405/326 144/258/225 140/257/224 487/406/192
f 426/407/194 198/322/272 206/325/275 427/408/327
f 427/408/327 206/325/275 201/331/279 429/409/179
f 490/410/203 207/333/280 215/336/283 491/411/328
f 491/411/328 215/336/283 210/187/173 493/186/172
f 432/412/178 216/343/287 224/346/290 433/413/329
f 433/413/329 224/346/290 219/199/183 435/198/182
f 496/414/176 192/320/271 196/317/270 497/415/330
f 497/415/330 196/317/270 191/203/187 499/202/186
f 366/204/188 191/203/187 195/319/269 367/416/331
f 367/417/331 195/316/269 190/315/268 369/418/332
f 372/419/333 147/265/231 149/267/228 373/420/334
f 373/421/334 149/262/228 146/261/227 375/422/184
f 378/188/174 210/187/173 214/342/286 379/423/335
f 379/424/335 214/341/286 209/340/285 381/425/336
f 384/426/337 126/241/210 128/243/207 385/427/338
f 385/428/338 128/238/207 125/237/206 387/429/181
f 438/430/179 153/268/233 161/271/236 439/431/327
f 439/431/327 161/271/236 156/277/240 441/432/194
f 502/433/172 162/279/241 170/282/244 503/434/328
f 503/434/328 170/282/244 165/288/248 505/435/203
f 444/436/182 180/301/257 188/304/260 445/437/329
f 445/437/329 188/304/260 183/310/264 447/438/178
f 508/439/186 174/299/256 178/296/255 509/440/330
f 509/440/330 178/296/255 173/295/254 511/441/176
f 198/322/272 156/277/240 160/278/239 202/323/273
f 202/328/273 160/276/239 155/236/205 199/235/204
f 172/216/196 189/215/195 197/314/267 177/294/253
f 177/298/253 197/321/267 192/320/271 173/295/254
f 207/333/280 165/288/248 169/289/247 211/334/281
f 211/339/281 169/287/247 164/232/202 208/231/201
f 216/343/287 183/310/264 187/311/263 220/344/288
f 220/349/288 187/309/263 182/220/198 217/219/197
f 450/442/194 226/356/297 228/359/294 451/443/327
f 451/444/327 228/353/294 225/195/180 453/194/179
f 514/445/203 233/367/303 235/370/300 515/446/328
f 515/447/328 235/364/300 232/211/193 517/210/172
f 456/192/178 247/191/177 249/391/312 457/448/329
f 457/449/329 249/386/312 246/227/200 459/226/182
f 520/450/176 241/382/311 244/385/310 521/451/330
f 521/452/330 244/379/310 240/223/199 523/222/186
f 390/224/188 240/223/199 242/381/307 391/453/331
f 391/454/331 242/376/307 239/375/306 393/455/332
f 396/456/333 181/305/261 184/308/258 397/457/334
f 397/458/334 184/302/258 180/301/257 399/459/184
f 402/212/174 232/211/193 238/366/302 403/460/335
f 403/461/335 238/372/302 234/371/305 405/462/336
f 408/463/337 154/272/237 157/275/234 409/464/338
f 409/465/338 157/269/234 153/268/233 411/466/181
f 464/467/36 429/409/179 201/331/279 388/468/181
f 254/469/210 290/470/299 295/471/193 260/472/213
f 323/473/220 337/474/306 344/475/180 309/476/339
f 289/477/297 283/478/311 303/479/177 296/480/303
f 261/481/217 297/482/305 302/483/200 274/484/227
f 275/485/340 304/486/316 282/487/199 269/488/341
f 255/489/212 262/490/219 276/491/191 268/492/342
f 310/493/210 346/494/299 351/495/193 316/496/213
f 345/497/297 339/498/311 359/499/177 352/500/303
f 317/501/217 353/502/305 358/503/200 330/504/227
f 331/505/340 360/506/316 338/507/199 325/508/341
f 311/509/212 318/510/219 332/511/191 324/512/342
f 253/513/339 256/514/207 257/515/343 259/516/344
f 254/469/210 258/517/211 257/518/343 256/519/207
f 255/489/212 259/516/344 257/515/343 258/520/211
f 260/472/213 263/521/214 264/522/345 266/523/216
f 261/481/217 265/524/218 264/525/345 263/526/214
f 262/490/219 266/527/216 264/525/345 265/524/218
f 267/528/220 270/529/221 271/530/346 273/531/223
f 268/492/342 272/532/225 271/530/346 270/529/221
f 269/488/341 273/533/223 271/534/346 272/535/225
f 274/484/227 277/536/228 278/537/347 280/538/230
f 275/485/340 279/539/232 278/540/347 277/541/228
f 276/491/191 280/538/230 278/537/347 279/542/232
f 281/543/306 284/544/307 285/545/348 287/546/309
f 282/487/199 286/547/310 285/545/348 284/548/307
f 283/478/311 287/546/309 285/545/348 286/547/310
f 288/549/180 291/550/294 292/551/349 294/552/296
f 289/477/297 293/553/298 292/551/349 291/550/294
f 290/470/299 294/554/296 292/551/349 293/553/298
f 295/471/193 298/555/300 299/556/350 301/557/302
f 296/480/303 300/558/304 299/556/350 298/555/300
f 297/482/305 301/559/302 299/560/350 300/561/304
f 302/483/200 305/562/312 306/563/351 308/564/314
f 303/479/177 307/565/315 306/566/351 305/567/312
f 304/486/316 308/568/314 306/566/351 307/565/315
f 309/476/339 312/569/207 313/570/352 315/571/344
f 310/493/210 314/572/211 313/570/352 312/573/207
f 311/509/212 315/571/344 313/570/352 314/572/211
f 316/496/213 319/574/214 320/575/345 322/576/216
f 317/501/217 321/577/218 320/575/345 319/578/214
f 318/510/219 322/576/216 320/575/345 321/577/218
f 323/473/220 326/579/221 327/580/353 329/581/223
f 324/512/342 328/582/225 327/580/353 326/579/221
f 325/508/341 329/583/223 327/580/353 328/582/225
f 330/504/227 333/584/228 334/585/347 336/586/230
f 331/505/340 335/587/232 334/585/347 333/588/228
f 332/511/191 336/586/230 334/585/347 335/587/232
f 337/474/306 340/589/307 341/590/308 343/591/309
f 338/507/199 342/592/310 341/593/308 340/594/307
f 339/498/311 343/591/309 341/590/308 342/595/310
f 344/475/180 347/596/294 348/597/295 350/598/296
f 345/497/297 349/599/298 348/597/295 347/596/294
f 346/494/299 350/600/296 348/601/295 349/602/298
f 351/495/193 354/603/300 355/604/354 357/605/302
f 352/500/303 356/606/304 355/607/354 354/608/300
f 353/502/305 357/609/302 355/610/354 356/611/304
f 358/503/200 361/612/312 362/613/351 364/614/314
f 359/499/177 363/615/315 362/616/351 361/617/312
f 360/506/316 364/618/314 362/619/351 363/620/315
f 267/528/220 253/513/339 259/516/344 270/529/221
f 270/529/221 259/516/344 255/489/212 268/492/342
f 254/469/210 260/472/213 266/523/216 258/517/211
f 258/520/211 266/527/216 262/490/219 255/489/212
f 261/481/217 274/484/227 280/538/230 265/524/218
f 265/524/218 280/538/230 276/491/191 262/490/219
f 275/485/340 269/488/341 272/535/225 279/539/232
f 279/542/232 272/532/225 268/492/342 276/491/191
f 283/478/311 289/477/297 291/550/294 287/546/309
f 287/546/309 291/550/294 288/549/180 281/543/306
f 289/477/297 296/480/303 298/555/300 293/553/298
f 293/553/298 298/555/300 295/471/193 290/470/299
f 296/480/303 303/479/177 305/567/312 300/558/304
f 300/561/304 305/562/312 302/483/200 297/482/305
f 303/479/177 283/478/311 286/547/310 307/565/315
f 307/565/315 286/547/310 282/487/199 304/486/316
f 269/488/341 282/487/199 284/548/307 273/533/223
f 273/531/223 284/544/307 281/543/306 267/528/220
f 304/486/316 275/485/340 277/541/228 308/568/314
f 308/564/314 277/536/228 274/484/227 302/483/200
f 260/472/213 295/471/193 301/557/302 263/521/214
f 263/526/214 301/559/302 297/482/305 261/481/217
f 290/470/299 254/469/210 256/519/207 294/554/296
f 294/552/296 256/514/207 253/513/339 288/549/180
f 323/473/220 309/476/339 315/571/344 326/579/221
f 326/579/221 315/571/344 311/509/212 324/512/342
f 310/493/210 316/496/213 322/576/216 314/572/211
f 314/572/211 322/576/216 318/510/219 311/509/212
f 317/501/217 330/504/227 336/586/230 321/577/218
f 321/577/218 336/586/230 332/511/191 318/510/219
f 331/505/340 325/508/341 328/582/225 335/587/232
f 335/587/232 328/582/225 324/512/342 332/511/191
f 339/498/311 345/497/297 347/596/294 343/591/309
f 343/591/309 347/596/294 344/475/180 337/474/306
f 345/497/297 352/500/303 354/608/300 349/599/298
f 349/602/298 354/603/300 351/495/193 346/494/299
f 352/500/303 359/499/177 361/617/312 356/606/304
f 356/611/304 361/612/312 358/503/200 353/502/305
f 359/499/177 339/498/311 342/595/310 363/615/315
f 363/620/315 342/592/310 338/507/199 360/506/316
f 325/508/341 338/507/199 340/594/307 329/583/223
f 329/581/223 340/589/307 337/474/306 323/473/220
f 360/506/316 331/505/340 333/588/228 364/618/314
f 364/614/314 333/584/228 330/504/227 358/503/200
f 316/496/213 351/495/193 357/605/302 319/574/214
f 319/578/214 357/609/302 353/502/305 317/501/217
f 346/494/299 310/493/210 312/573/207 350/600/296
f 350/598/296 312/569/207 309/476/339 344/475/180
f 267/528/220 281/543/306 288/549/180 253/513/339
f 414/396/317 462/621/36 387/429/181 125/237/206
f 462/621/36 464/467/36 388/468/181 387/429/181
f 205/332/278 386/622/338 388/468/181 201/331/279
f 386/622/338 385/428/338 387/429/181 388/468/181
f 200/329/277 383/623/337 386/624/338 205/330/278
f 383/623/337 384/426/337 385/427/338 386/624/338
f 135/251/214 380/625/335 382/626/336 133/249/217
f 380/625/335 379/424/335 381/425/336 382/626/336
f 132/245/213 377/627/174 380/628/335 135/246/214
f 377/627/174 378/188/174 379/423/335 380/628/335
f 223/352/293 374/629/334 376/200/184 219/199/183
f 374/629/334 373/421/334 375/422/184 376/200/184
f 218/350/292 371/630/333 374/631/334 223/351/293
f 371/630/333 372/419/333 373/420/334 374/631/334
f 145/256/223 368/632/331 370/633/332 139/253/220
f 368/632/331 367/417/331 369/418/332 370/633/332
f 141/259/226 365/634/355 368/635/331 145/260/223
f 365/634/355 366/204/188 367/416/331 368/635/331
f 484/404/325 526/636/185 365/634/355 141/259/226
f 526/636/185 528/201/185 366/204/188 365/634/355
f 420/402/323 466/637/27 375/422/184 146/261/227
f 466/637/27 468/197/27 376/200/184 375/422/184
f 478/399/320 530/638/171 377/627/174 132/245/213
f 530/638/171 532/185/171 378/188/174 377/627/174
f 231/355/296 410/639/338 412/196/181 225/195/180
f 410/639/338 409/465/338 411/466/181 412/196/181
f 227/360/299 407/640/337 410/641/338 231/361/296
f 407/640/337 408/463/337 409/464/338 410/641/338
f 166/286/242 404/642/335 406/643/336 163/283/245
f 404/642/335 403/461/335 405/462/336 406/643/336
f 162/279/241 401/644/174 404/645/335 166/280/242
f 401/644/174 402/212/174 403/460/335 404/645/335
f 252/388/314 398/646/334 400/228/184 246/227/200
f 398/646/334 397/458/334 399/459/184 400/228/184
f 248/392/316 395/647/333 398/648/334 252/393/314
f 395/647/333 396/456/333 397/457/334 398/648/334
f 179/293/252 392/649/331 394/650/332 171/290/249
f 392/649/331 391/454/331 393/455/332 394/650/332
f 174/299/256 389/651/188 392/652/331 179/300/252
f 389/651/188 390/224/188 391/453/331 392/652/331
f 444/436/182 470/653/27 399/459/184 180/301/257
f 470/653/27 472/225/27 400/228/184 399/459/184
f 508/439/186 534/654/185 389/651/188 174/299/256
f 534/654/185 536/221/185 390/224/188 389/651/188
f 502/433/172 538/655/171 401/644/174 162/279/241
f 538/655/171 540/209/171 402/212/174 401/644/174
f 438/430/179 474/656/36 411/466/181 153/268/233
f 474/656/36 476/193/36 412/196/181 411/466/181
f 394/650/332 393/455/332 475/657/36 473/658/36
f 579/659/36 580/660/36 476/193/36 474/656/36
f 171/290/249 394/650/332 473/658/36 437/661/179
f 561/662/179 579/659/36 474/656/36 438/430/179
f 406/643/336 405/462/336 471/663/27 469/664/27
f 577/665/27 578/666/27 472/225/27 470/653/27
f 163/283/245 406/643/336 469/664/27 443/667/182
f 564/668/182 577/665/27 470/653/27 444/436/182
f 382/626/336 381/425/336 467/669/27 465/670/27
f 575/671/27 576/672/27 468/197/27 466/637/27
f 133/249/217 382/626/336 465/670/27 419/673/323
f 552/674/323 575/671/27 466/637/27 420/402/323
f 370/633/332 369/418/332 463/675/36 461/676/36
f 573/677/36 574/678/36 464/467/36 462/621/36
f 139/253/220 370/633/332 461/676/36 413/679/317
f 549/680/317 573/677/36 462/621/36 414/396/317
f 369/418/332 190/315/268 430/681/179 463/675/36
f 574/678/36 557/682/179 429/409/179 464/467/36
f 237/374/304 458/683/329 460/684/182 234/371/305
f 571/685/329 457/449/329 459/226/182 572/686/182
f 233/367/303 455/687/178 458/688/329 237/368/304
f 570/689/178 456/192/178 457/448/329 571/690/329
f 245/378/309 452/691/327 454/692/179 239/375/306
f 568/693/327 451/444/327 453/194/179 569/694/179
f 241/382/311 449/695/194 452/696/327 245/383/309
f 567/697/194 450/442/194 451/443/327 568/698/327
f 168/284/246 446/699/329 448/229/178 164/232/202
f 565/700/329 445/437/329 447/438/178 566/701/178
f 163/283/245 443/667/182 446/699/329 168/284/246
f 564/668/182 444/436/182 445/437/329 565/700/329
f 175/291/250 440/702/327 442/213/194 172/216/196
f 562/703/327 439/431/327 441/432/194 563/704/194
f 171/290/249 437/661/179 440/702/327 175/291/250
f 561/662/179 438/430/179 439/431/327 562/703/327
f 213/337/284 434/705/329 436/706/182 209/340/285
f 559/707/329 433/413/329 435/198/182 560/708/182
f 208/231/201 431/230/178 434/705/329 213/337/284
f 558/709/178 432/412/178 433/413/329 559/707/329
f 193/312/265 428/710/327 430/681/179 190/315/268
f 556/711/327 427/408/327 429/409/179 557/682/179
f 189/215/195 425/214/194 428/710/327 193/312/265
f 555/712/194 426/407/194 427/408/327 556/711/327
f 137/250/218 422/713/324 424/714/190 134/252/219
f 553/715/324 421/403/324 423/206/190 554/716/190
f 133/249/217 419/673/323 422/713/324 137/250/218
f 552/674/323 420/402/323 421/403/324 553/715/324
f 142/254/221 416/717/318 418/718/319 140/257/224
f 550/719/318 415/397/318 417/398/319 551/720/319
f 139/253/220 413/679/317 416/717/318 142/254/221
f 549/680/317 414/396/317 415/397/318 550/719/318
f 183/310/264 216/343/287 432/412/178 447/438/178
f 566/701/178 558/709/178 431/230/178 448/229/178
f 405/462/336 234/371/305 460/684/182 471/663/27
f 578/666/27 572/686/182 459/226/182 472/225/27
f 156/277/240 198/322/272 426/407/194 441/432/194
f 563/704/194 555/712/194 425/214/194 442/213/194
f 481/401/322 134/252/219 424/714/190 541/721/189
f 584/722/189 554/716/190 423/206/190 543/205/189
f 381/425/336 209/340/285 436/706/182 467/669/27
f 576/672/27 560/708/182 435/198/182 468/197/27
f 393/455/332 239/375/306 454/692/179 475/657/36
f 580/660/36 569/694/179 453/194/179 476/193/36
f 514/445/203 546/723/175 455/687/178 233/367/303
f 582/724/175 548/189/175 456/192/178 570/689/178
f 567/697/194 449/695/194 547/725/175 581/726/175
f 622/727/175 620/728/175 548/189/175 582/724/175
f 226/356/297 450/442/194 545/729/175 513/730/203
f 603/731/203 619/732/175 546/723/175 514/445/203
f 551/720/319 583/733/189 544/734/189 418/718/319
f 621/735/189 584/722/189 543/205/189 618/736/189
f 127/244/212 482/737/322 542/738/189 417/398/319
f 587/739/322 481/401/322 541/721/189 617/740/189
f 408/463/337 407/640/337 539/741/171 537/742/171
f 615/743/171 616/744/171 540/209/171 538/655/171
f 154/272/237 408/463/337 537/742/171 501/745/172
f 597/746/172 615/743/171 538/655/171 502/433/172
f 396/456/333 395/647/333 535/747/185 533/748/185
f 613/749/185 614/750/185 536/221/185 534/654/185
f 181/305/261 396/456/333 533/748/185 507/751/186
f 600/752/186 613/749/185 534/654/185 508/439/186
f 384/426/337 383/623/337 531/753/171 529/754/171
f 611/755/171 612/756/171 532/185/171 530/638/171
f 126/241/210 384/426/337 529/754/171 477/757/320
f 585/758/320 611/755/171 530/638/171 478/399/320
f 372/419/333 371/630/333 527/759/185 525/760/185
f 609/761/185 610/762/185 528/201/185 526/636/185
f 147/265/231 372/419/333 525/760/185 483/763/325
f 588/764/325 609/761/185 526/636/185 484/404/325
f 251/395/315 522/765/330 524/766/186 248/392/316
f 607/767/330 521/452/330 523/222/186 608/768/186
f 247/191/177 519/190/176 522/769/330 251/389/315
f 606/770/176 520/450/176 521/451/330 607/771/330
f 230/363/298 516/772/328 518/773/172 227/360/299
f 604/774/328 515/447/328 517/210/172 605/775/172
f 226/356/297 513/730/203 516/776/328 230/357/298
f 603/731/203 514/445/203 515/446/328 604/777/328
f 186/306/262 510/778/330 512/217/176 182/220/198
f 601/779/330 509/440/330 511/441/176 602/780/176
f 181/305/261 507/751/186 510/778/330 186/306/262
f 600/752/186 508/439/186 509/440/330 601/779/330
f 159/273/238 504/781/328 506/233/203 155/236/205
f 598/782/328 503/434/328 505/435/203 599/783/203
f 154/272/237 501/745/172 504/781/328 159/273/238
f 597/746/172 502/433/172 503/434/328 598/782/328
f 222/347/291 498/784/330 500/785/186 218/350/292
f 595/786/330 497/415/330 499/202/186 596/787/186
f 217/219/197 495/218/176 498/784/330 222/347/291
f 594/788/176 496/414/176 497/415/330 595/786/330
f 204/326/276 492/789/328 494/790/172 200/329/277
f 592/791/328 491/411/328 493/186/172 593/792/172
f 199/235/204 489/234/203 492/789/328 204/326/276
f 591/793/203 490/410/203 491/411/328 592/791/328
f 151/266/232 486/794/326 488/208/192 148/207/191
f 589/795/326 485/405/326 487/406/192 590/796/192
f 147/265/231 483/763/325 486/794/326 151/266/232
f 588/764/325 484/404/325 485/405/326 589/795/326
f 130/242/211 480/797/321 482/737/322 127/244/212
f 586/798/321 479/400/321 481/401/322 587/739/322
f 126/241/210 477/757/320 480/797/321 130/242/211
f 585/758/320 478/399/320 479/400/321 586/798/321
f 165/288/248 207/333/280 490/410/203 505/435/203
f 599/783/203 591/793/203 489/234/203 506/233/203
f 395/647/333 248/392/316 524/766/186 535/747/185
f 614/750/185 608/768/186 523/222/186 536/221/185
f 173/295/254 192/320/271 496/414/176 511/441/176
f 602/780/176 594/788/176 495/218/176 512/217/176
f 407/640/337 227/360/299 518/773/172 539/741/171
f 616/744/171 605/775/172 517/210/172 540/209/171
f 418/718/319 544/734/189 487/406/192 140/257/224
f 618/736/189 543/205/189 488/208/192 590/796/192
f 371/630/333 218/350/292 500/785/186 527/759/185
f 610/762/185 596/787/186 499/202/186 528/201/185
f 449/695/194 241/382/311 520/450/176 547/725/175
f 620/728/175 606/770/176 519/190/176 548/189/175
f 383/623/337 200/329/277 494/790/172 531/753/171
f 612/756/171 593/792/172 493/186/172 532/185/171
f 617/740/189 541/721/189 584/722/189 621/735/189
f 417/398/319 542/738/189 583/733/189 551/720/319
f 619/732/175 622/727/175 582/724/175 546/723/175
f 450/442/194 567/697/194 581/726/175 545/729/175
f 546/723/175 582/724/175 570/689/178 455/687/178
f 475/657/36 454/692/179 569/694/179 580/660/36
f 467/669/27 436/706/182 560/708/182 576/672/27
f 541/721/189 424/714/190 554/716/190 584/722/189
f 441/432/194 426/407/194 555/712/194 563/704/194
f 471/663/27 460/684/182 572/686/182 578/666/27
f 447/438/178 432/412/178 558/709/178 566/701/178
f 413/679/317 549/680/317 550/719/318 416/717/318
f 416/717/318 550/719/318 551/720/319 418/718/319
f 419/673/323 552/674/323 553/715/324 422/713/324
f 422/713/324 553/715/324 554/716/190 424/714/190
f 425/214/194 555/712/194 556/711/327 428/710/327
f 428/710/327 556/711/327 557/682/179 430/681/179
f 431/230/178 558/709/178 559/707/329 434/705/329
f 434/705/329 559/707/329 560/708/182 436/706/182
f 437/661/179 561/662/179 562/703/327 440/702/327
f 440/702/327 562/703/327 563/704/194 442/213/194
f 443/667/182 564/668/182 565/700/329 446/699/329
f 446/699/329 565/700/329 566/701/178 448/229/178
f 449/695/194 567/697/194 568/698/327 452/696/327
f 452/691/327 568/693/327 569/694/179 454/692/179
f 455/687/178 570/689/178 571/690/329 458/688/329
f 458/683/329 571/685/329 572/686/182 460/684/182
f 463/675/36 430/681/179 557/682/179 574/678/36
f 413/679/317 461/676/36 573/677/36 549/680/317
f 461/676/36 463/675/36 574/678/36 573/677/36
f 419/673/323 465/670/27 575/671/27 552/674/323
f 465/670/27 467/669/27 576/672/27 575/671/27
f 443/667/182 469/664/27 577/665/27 564/668/182
f 469/664/27 471/663/27 578/666/27 577/665/27
f 437/661/179 473/658/36 579/659/36 561/662/179
f 473/658/36 475/657/36 580/660/36 579/659/36
f 545/729/175 581/726/175 622/727/175 619/732/175
f 542/738/189 617/740/189 621/735/189 583/733/189
f 531/753/171 494/790/172 593/792/172 612/756/171
f 547/725/175 520/450/176 606/770/176 620/728/175
f 527/759/185 500/785/186 596/787/186 610/762/185
f 544/734/189 618/736/189 590/796/192 487/406/192
f 539/741/171 518/773/172 605/775/172 616/744/171
f 511/441/176 496/414/176 594/788/176 602/780/176
f 535/747/185 524/766/186 608/768/186 614/750/185
f 505/435/203 490/410/203 591/793/203 599/783/203
f 477/757/320 585/758/320 586/798/321 480/797/321
f 480/797/321 586/798/321 587/739/322 482/737/322
f 483/763/325 588/764/325 589/795/326 486/794/326
f 486/794/326 589/795/326 590/796/192 488/208/192
f 489/234/203 591/793/203 592/791/328 492/789/328
f 492/789/328 592/791/328 593/792/172 494/790/172
f 495/218/176 594/788/176 595/786/330 498/784/330
f 498/784/330 595/786/330 596/787/186 500/785/186
f 501/745/172 597/746/172 598/782/328 504/781/328
f 504/781/328 598/782/328 599/783/203 506/233/203
f 507/751/186 600/752/186 601/779/330 510/778/330
f 510/778/330 601/779/330 602/780/176 512/217/176
f 513/730/203 603/731/203 604/777/328 516/776/328
f 516/772/328 604/774/328 605/775/172 518/773/172
f 519/190/176 606/770/176 607/771/330 522/769/330
f 522/765/330 607/767/330 608/768/186 524/766/186
f 483/763/325 525/760/185 609/761/185 588/764/325
f 525/760/185 527/759/185 610/762/185 609/761/185
f 477/757/320 529/754/171 611/755/171 585/758/320
f 529/754/171 531/753/171 612/756/171 611/755/171
f 507/751/186 533/748/185 613/749/185 600/752/186
f 533/748/185 535/747/185 614/750/185 613/749/185
f 501/745/172 537/742/171 615/743/171 597/746/172
f 537/742/171 539/741/171 616/744/171 615/743/171
f 482/737/322 587/739/322 617/740/189 542/738/189
f 583/733/189 621/735/189 618/736/189 544/734/189
f 513/730/203 545/729/175 619/732/175 603/731/203
f 581/726/175 547/725/175 620/728/175 622/727/175
f 1/67/61 16/153/147 636/799/36 635/800/6
f 96/131/125 633/801/170 634/802/57 90/128/122
f 92/133/127 632/803/56 633/801/170 96/131/125
f 86/123/117 630/804/168 631/805/169 84/126/120
f 83/122/116 629/806/60 630/804/168 86/123/117
f 31/86/80 627/807/161 628/808/22 29/89/83
f 28/85/79 626/809/45 627/807/161 31/86/80
f 27/82/76 624/810/160 625/811/46 21/79/73
f 23/84/78 623/812/159 624/810/160 27/82/76
f 90/128/122 634/802/57 629/806/60 83/122/116
f 646/176/165 653/813/53 632/803/56 92/133/127
f 28/85/79 21/79/73 625/811/46 626/809/45
f 18/172/149 637/814/27 640/815/44 78/121/115
f 643/174/163 654/816/37 639/817/33 71/115/109
f 71/115/109 639/817/33 636/818/36 16/170/147
f 18/155/149 9/77/71 638/819/28 637/820/27
f 658/159/153 29/89/83 628/808/22 667/821/21
f 655/157/151 1/67/61 635/800/6 668/822/5
f 84/126/120 631/805/169 654/816/37 643/174/163
f 78/121/115 640/815/44 653/813/53 646/176/165
f 123/152/146 651/180/167 652/55/49 120/58/52
f 119/61/55 650/60/54 651/180/167 123/152/146
f 100/134/128 648/179/166 649/56/50 98/137/131
f 97/38/34 647/42/38 648/179/166 100/134/128
f 95/132/126 645/175/164 646/176/165 92/133/127
f 91/44/40 644/43/39 645/175/164 95/132/126
f 74/114/108 642/173/162 643/174/163 71/115/109
f 70/113/107 641/46/42 642/173/162 74/114/108
f 640/50/44 105/49/43 650/60/54 653/59/53
f 104/139/133 98/137/131 649/56/50 652/55/49
f 76/116/110 644/43/39 641/46/42 70/113/107
f 631/182/169 113/148/142 647/42/38 654/41/37
f 23/84/78 655/157/151 668/822/5 623/812/159
f 9/77/71 658/159/153 667/821/21 638/819/28
f 67/109/103 665/165/158 666/24/24 64/23/23
f 63/10/10 664/9/9 665/165/158 67/109/103
f 40/95/89 662/164/157 663/8/8 37/7/7
f 36/94/88 661/12/12 662/164/157 40/95/89
f 33/90/84 659/160/154 660/1/1 30/4/4
f 29/89/83 658/159/153 659/160/154 33/90/84
f 4/68/62 656/158/152 657/2/2 2/71/65
f 1/67/61 655/157/151 656/158/152 4/68/62
f 638/30/28 667/21/21 666/24/24 44/31/29
f 42/96/90 664/9/9 661/12/12 36/94/88
f 623/166/159 668/5/5 663/8/8 56/104/98
f 8/73/67 2/71/65 657/2/2 660/1/1
